<?xml version="1.0" encoding="UTF-8"?>
<!DOCTYPE svg PUBLIC "-//W3C//DTD SVG 1.1//EN" "http://www.w3.org/Graphics/SVG/1.1/DTD/svg11.dtd">
<svg xmlns="http://www.w3.org/2000/svg" version="1.1" width="320px" height="320px" style="shape-rendering:geometricPrecision; text-rendering:geometricPrecision; image-rendering:optimizeQuality; fill-rule:evenodd; clip-rule:evenodd" xmlns:xlink="http://www.w3.org/1999/xlink">
<g><path style="opacity:0.871" fill="#ae91c7" d="M 150.5,4.5 C 146.684,5.48242 142.684,6.14909 138.5,6.5C 137.167,6.5 135.833,6.5 134.5,6.5C 139.598,5.04269 144.931,4.37603 150.5,4.5 Z"/></g>
<g><path style="opacity:0.969" fill="#b79bce" d="M 188.5,7.5 C 188.5,7.16667 188.5,6.83333 188.5,6.5C 192.8,6.71911 196.8,7.71911 200.5,9.5C 196.277,9.66064 192.277,8.99397 188.5,7.5 Z"/></g>
<g><path style="opacity:1" fill="#8760a3" d="M 134.5,6.5 C 135.833,6.5 137.167,6.5 138.5,6.5C 136.047,7.21716 133.713,8.38383 131.5,10C 125.128,10.618 118.794,11.4513 112.5,12.5C 119.475,9.58715 126.809,7.58715 134.5,6.5 Z"/></g>
<g><path style="opacity:0.784" fill="#ae98c9" d="M 201.5,9.5 C 203.786,9.59495 205.786,10.2616 207.5,11.5C 204.99,11.9465 202.99,11.2798 201.5,9.5 Z"/></g>
<g><path style="opacity:1" fill="#7c5f9c" d="M 112.5,12.5 C 108.905,14.4229 105.572,16.7562 102.5,19.5C 100.167,19.5 97.8333,19.5 95.5,19.5C 100.756,16.3782 106.423,14.0449 112.5,12.5 Z"/></g>
<g><path style="opacity:1" fill="#793f9c" d="M 188.5,6.5 C 188.5,6.83333 188.5,7.16667 188.5,7.5C 170.652,5.67238 152.985,6.17238 135.5,9C 132.724,10.7787 133.057,11.7787 136.5,12C 135.584,12.3742 134.75,12.8742 134,13.5C 130.217,11.1281 126.384,10.9614 122.5,13C 126.568,12.7072 129.902,14.0405 132.5,17C 133.833,17.3333 135.167,17.6667 136.5,18C 136.167,18.3333 135.833,18.6667 135.5,19C 137.207,19.1953 138.874,19.1953 140.5,19C 138.114,21.6749 138.78,22.1749 142.5,20.5C 146.225,23.0687 150.059,25.4021 154,27.5C 154.354,25.1925 155.354,24.8592 157,26.5C 158.221,27.2718 159.221,28.2718 160,29.5C 159.923,28.2624 160.089,27.2624 160.5,26.5C 165.627,31.2402 171.627,32.5735 178.5,30.5C 178.389,31.1174 178.056,31.6174 177.5,32C 175.1,32.1858 172.766,32.6858 170.5,33.5C 170.137,34.1835 169.804,34.8501 169.5,35.5C 166.833,36.1667 164.167,36.8333 161.5,37.5C 158.509,38.9039 155.343,39.9039 152,40.5C 149.834,39.8357 147.834,38.8357 146,37.5C 143.088,37.358 141.588,38.6913 141.5,41.5C 139.005,40.8011 136.672,39.8011 134.5,38.5C 133.632,34.9265 132.132,34.9265 130,38.5C 128.579,35.3778 126.913,35.0444 125,37.5C 123.272,35.8056 123.772,34.6389 126.5,34C 121.263,32.9015 116.93,30.4015 113.5,26.5C 111.955,25.5481 110.288,25.2148 108.5,25.5C 108.5,23.8333 108.5,22.1667 108.5,20.5C 106.179,20.2289 104.179,20.8955 102.5,22.5C 99.9548,21.4508 99.9548,20.4508 102.5,19.5C 105.572,16.7562 108.905,14.4229 112.5,12.5C 118.794,11.4513 125.128,10.618 131.5,10C 133.713,8.38383 136.047,7.21716 138.5,6.5C 142.684,6.14909 146.684,5.48242 150.5,4.5C 163.17,2.98573 175.836,3.6524 188.5,6.5 Z"/></g>
<g><path style="opacity:0.004" fill="#fefffe" d="M 19.5,18.5 C 20.8333,19.1667 20.8333,19.1667 19.5,18.5 Z"/></g>
<g><path style="opacity:1" fill="#9c79b7" d="M 210.5,12.5 C 218.346,14.4286 225.679,17.4286 232.5,21.5C 230.473,21.6621 228.473,21.4955 226.5,21C 222.983,18.2434 218.983,16.5768 214.5,16C 213.269,14.5952 211.936,13.4286 210.5,12.5 Z"/></g>
<g><path style="opacity:1" fill="#823ea6" d="M 188.5,7.5 C 192.277,8.99397 196.277,9.66064 200.5,9.5C 200.833,9.5 201.167,9.5 201.5,9.5C 202.99,11.2798 204.99,11.9465 207.5,11.5C 208.791,11.2627 209.791,11.596 210.5,12.5C 211.936,13.4286 213.269,14.5952 214.5,16C 218.983,16.5768 222.983,18.2434 226.5,21C 228.473,21.4955 230.473,21.6621 232.5,21.5C 235.465,24.8115 239.132,26.8115 243.5,27.5C 244.659,30.0918 246.659,31.7585 249.5,32.5C 249,32.8333 248.5,33.1667 248,33.5C 242.769,31.0847 237.269,30.0847 231.5,30.5C 228.763,30.5987 226.096,30.2653 223.5,29.5C 214.695,27.2779 205.695,26.9446 196.5,28.5C 190.274,28.3877 184.274,29.0543 178.5,30.5C 171.627,32.5735 165.627,31.2402 160.5,26.5C 160.089,27.2624 159.923,28.2624 160,29.5C 159.221,28.2718 158.221,27.2718 157,26.5C 155.354,24.8592 154.354,25.1925 154,27.5C 150.059,25.4021 146.225,23.0687 142.5,20.5C 138.78,22.1749 138.114,21.6749 140.5,19C 138.874,19.1953 137.207,19.1953 135.5,19C 135.833,18.6667 136.167,18.3333 136.5,18C 135.167,17.6667 133.833,17.3333 132.5,17C 129.902,14.0405 126.568,12.7072 122.5,13C 126.384,10.9614 130.217,11.1281 134,13.5C 134.75,12.8742 135.584,12.3742 136.5,12C 133.057,11.7787 132.724,10.7787 135.5,9C 152.985,6.17238 170.652,5.67238 188.5,7.5 Z"/></g>
<g><path style="opacity:0.004" fill="#fefffe" d="M 33.5,25.5 C 34.8333,26.1667 34.8333,26.1667 33.5,25.5 Z"/></g>
<g><path style="opacity:1" fill="#9d7ab9" d="M 232.5,21.5 C 234.308,21.4914 235.975,21.9914 237.5,23C 239.747,24.2775 241.747,25.7775 243.5,27.5C 239.132,26.8115 235.465,24.8115 232.5,21.5 Z"/></g>
<g><path style="opacity:0.004" fill="#fefffe" d="M 9.5,26.5 C 10.8333,27.1667 10.8333,27.1667 9.5,26.5 Z"/></g>
<g><path style="opacity:1" fill="#765a95" d="M 95.5,19.5 C 95.1412,21.371 94.1412,22.871 92.5,24C 88.8846,24.4705 85.5513,25.6371 82.5,27.5C 81.8333,27.5 81.1667,27.5 80.5,27.5C 85.0128,24.0032 90.0128,21.3365 95.5,19.5 Z"/></g>
<g><path style="opacity:1" fill="#69378e" d="M 95.5,19.5 C 97.8333,19.5 100.167,19.5 102.5,19.5C 99.9548,20.4508 99.9548,21.4508 102.5,22.5C 104.179,20.8955 106.179,20.2289 108.5,20.5C 108.5,22.1667 108.5,23.8333 108.5,25.5C 110.288,25.2148 111.955,25.5481 113.5,26.5C 116.93,30.4015 121.263,32.9015 126.5,34C 123.772,34.6389 123.272,35.8056 125,37.5C 126.913,35.0444 128.579,35.3778 130,38.5C 132.132,34.9265 133.632,34.9265 134.5,38.5C 136.672,39.8011 139.005,40.8011 141.5,41.5C 141.588,38.6913 143.088,37.358 146,37.5C 147.834,38.8357 149.834,39.8357 152,40.5C 155.343,39.9039 158.509,38.9039 161.5,37.5C 161.5,37.8333 161.5,38.1667 161.5,38.5C 159.819,40.0075 157.819,41.0075 155.5,41.5C 151.693,40.7741 149.026,42.1074 147.5,45.5C 146.167,45.5 144.833,45.5 143.5,45.5C 143.5,46.5 143.5,47.5 143.5,48.5C 142.167,48.5 140.833,48.5 139.5,48.5C 139.5,49.5 139.5,50.5 139.5,51.5C 137.833,51.5 136.167,51.5 134.5,51.5C 132.914,52.4132 131.414,52.4132 130,51.5C 129.5,52 129,52.5 128.5,53C 129.973,53.7096 130.64,54.8762 130.5,56.5C 127.67,56.3059 125.004,55.6392 122.5,54.5C 121.659,52.4885 120.159,51.1552 118,50.5C 117.333,53.1667 116.667,53.1667 116,50.5C 114.688,52.6576 113.022,52.9909 111,51.5C 110.51,52.7932 110.343,54.1266 110.5,55.5C 109.167,55.5 107.833,55.5 106.5,55.5C 106.5,54.1667 106.5,52.8333 106.5,51.5C 103.794,51.4249 101.127,51.0916 98.5,50.5C 98.0798,48.326 98.0798,46.326 98.5,44.5C 96.2338,43.6858 93.9005,43.1858 91.5,43C 90.8875,40.8526 90.2208,38.686 89.5,36.5C 87.1052,37.5225 86.1052,36.5225 86.5,33.5C 80.934,33.8248 79.6007,31.8248 82.5,27.5C 85.5513,25.6371 88.8846,24.4705 92.5,24C 94.1412,22.871 95.1412,21.371 95.5,19.5 Z"/></g>
<g><path style="opacity:0.004" fill="#fefffe" d="M 253.5,27.5 C 254.833,28.1667 254.833,28.1667 253.5,27.5 Z"/></g>
<g><path style="opacity:0.494" fill="#c2a9d6" d="M 223.5,29.5 C 214.489,28.4071 205.489,28.4071 196.5,29.5C 196.5,29.1667 196.5,28.8333 196.5,28.5C 205.695,26.9446 214.695,27.2779 223.5,29.5 Z"/></g>
<g><path style="opacity:1" fill="#a082ba" d="M 196.5,28.5 C 196.5,28.8333 196.5,29.1667 196.5,29.5C 186.892,30.5461 177.892,32.5461 169.5,35.5C 169.804,34.8501 170.137,34.1835 170.5,33.5C 172.766,32.6858 175.1,32.1858 177.5,32C 178.056,31.6174 178.389,31.1174 178.5,30.5C 184.274,29.0543 190.274,28.3877 196.5,28.5 Z"/></g>
<g><path style="opacity:1" fill="#6d568d" d="M 80.5,27.5 C 78.2401,30.9394 75.5734,33.9394 72.5,36.5C 70.2192,38.4279 67.5525,39.4279 64.5,39.5C 68.9795,34.3529 74.3128,30.3529 80.5,27.5 Z"/></g>
<g><path style="opacity:1" fill="#613386" d="M 80.5,27.5 C 81.1667,27.5 81.8333,27.5 82.5,27.5C 79.6007,31.8248 80.934,33.8248 86.5,33.5C 86.1052,36.5225 87.1052,37.5225 89.5,36.5C 90.2208,38.686 90.8875,40.8526 91.5,43C 93.9005,43.1858 96.2338,43.6858 98.5,44.5C 98.0798,46.326 98.0798,48.326 98.5,50.5C 101.127,51.0916 103.794,51.4249 106.5,51.5C 106.5,52.8333 106.5,54.1667 106.5,55.5C 107.833,55.5 109.167,55.5 110.5,55.5C 110.343,54.1266 110.51,52.7932 111,51.5C 113.022,52.9909 114.688,52.6576 116,50.5C 116.667,53.1667 117.333,53.1667 118,50.5C 120.159,51.1552 121.659,52.4885 122.5,54.5C 122.555,57.0661 123.222,59.7328 124.5,62.5C 122.119,63.4196 119.786,63.4196 117.5,62.5C 116.167,63.1667 115.167,64.1667 114.5,65.5C 113.311,66.4287 111.978,66.762 110.5,66.5C 110.5,65.5 110.5,64.5 110.5,63.5C 109.167,63.5 107.833,63.5 106.5,63.5C 106.649,62.448 106.483,61.448 106,60.5C 104.963,63.3838 103.129,64.0504 100.5,62.5C 101.09,61.2011 102.09,60.3678 103.5,60C 100.775,58.805 98.1085,58.4717 95.5,59C 94.7239,56.0134 93.0572,55.1801 90.5,56.5C 89.9478,54.9974 89.9478,53.3307 90.5,51.5C 88.8008,51.6602 87.1341,51.4935 85.5,51C 85.8333,50.6667 86.1667,50.3333 86.5,50C 83.3084,49.3034 81.3084,47.47 80.5,44.5C 79.5,44.5 78.5,44.5 77.5,44.5C 77.5,45.5 77.5,46.5 77.5,47.5C 73.6641,46.1155 69.6641,45.1155 65.5,44.5C 65.281,43.325 65.6143,42.325 66.5,41.5C 68.8889,40.8195 71.2222,39.9862 73.5,39C 72.7476,38.3292 72.4142,37.4959 72.5,36.5C 75.5734,33.9394 78.2401,30.9394 80.5,27.5 Z"/></g>
<g><path style="opacity:1" fill="#9265ab" d="M 243.5,27.5 C 247.683,29.0875 251.35,31.4208 254.5,34.5C 254.631,35.3764 254.298,36.0431 253.5,36.5C 251.929,35.6906 250.262,35.3573 248.5,35.5C 242.581,34.2753 236.914,32.6086 231.5,30.5C 237.269,30.0847 242.769,31.0847 248,33.5C 248.5,33.1667 249,32.8333 249.5,32.5C 246.659,31.7585 244.659,30.0918 243.5,27.5 Z"/></g>
<g><path style="opacity:0.004" fill="#fefffe" d="M 261.5,34.5 C 262.833,35.1667 262.833,35.1667 261.5,34.5 Z"/></g>
<g><path style="opacity:0.91" fill="#a592b8" d="M 254.5,34.5 C 258.245,35.8674 260.245,38.2007 260.5,41.5C 256.687,38.9266 252.687,36.9266 248.5,35.5C 250.262,35.3573 251.929,35.6906 253.5,36.5C 254.298,36.0431 254.631,35.3764 254.5,34.5 Z"/></g>
<g><path style="opacity:0.008" fill="#e4ddf1" d="M 169.5,35.5 C 167.316,37.5848 164.649,38.5848 161.5,38.5C 161.5,38.1667 161.5,37.8333 161.5,37.5C 164.167,36.8333 166.833,36.1667 169.5,35.5 Z"/></g>
<g><path style="opacity:0.004" fill="#fefffe" d="M 288.5,40.5 C 289.833,41.1667 289.833,41.1667 288.5,40.5 Z"/></g>
<g><path style="opacity:1" fill="#9881b3" d="M 155.5,41.5 C 153.211,43.3873 150.545,44.7206 147.5,45.5C 149.026,42.1074 151.693,40.7741 155.5,41.5 Z"/></g>
<g><path style="opacity:0.004" fill="#fefffe" d="M 21.5,43.5 C 22.8333,44.1667 22.8333,44.1667 21.5,43.5 Z"/></g>
<g><path style="opacity:0.004" fill="#fefffe" d="M 7.5,44.5 C 8.83333,45.1667 8.83333,45.1667 7.5,44.5 Z"/></g>
<g><path style="opacity:1" fill="#59307e" d="M 72.5,36.5 C 72.4142,37.4959 72.7476,38.3292 73.5,39C 71.2222,39.9862 68.8889,40.8195 66.5,41.5C 65.6143,42.325 65.281,43.325 65.5,44.5C 69.6641,45.1155 73.6641,46.1155 77.5,47.5C 77.5,46.5 77.5,45.5 77.5,44.5C 78.5,44.5 79.5,44.5 80.5,44.5C 81.3084,47.47 83.3084,49.3034 86.5,50C 86.1667,50.3333 85.8333,50.6667 85.5,51C 87.1341,51.4935 88.8008,51.6602 90.5,51.5C 89.9478,53.3307 89.9478,54.9974 90.5,56.5C 93.0572,55.1801 94.7239,56.0134 95.5,59C 98.1085,58.4717 100.775,58.805 103.5,60C 102.09,60.3678 101.09,61.2011 100.5,62.5C 103.129,64.0504 104.963,63.3838 106,60.5C 106.483,61.448 106.649,62.448 106.5,63.5C 107.833,63.5 109.167,63.5 110.5,63.5C 110.5,64.5 110.5,65.5 110.5,66.5C 111.978,66.762 113.311,66.4287 114.5,65.5C 115.167,64.1667 116.167,63.1667 117.5,62.5C 119.786,63.4196 122.119,63.4196 124.5,62.5C 123.222,59.7328 122.555,57.0661 122.5,54.5C 125.004,55.6392 127.67,56.3059 130.5,56.5C 130.64,54.8762 129.973,53.7096 128.5,53C 129,52.5 129.5,52 130,51.5C 131.414,52.4132 132.914,52.4132 134.5,51.5C 134.567,52.9587 134.234,54.2921 133.5,55.5C 133.167,56.5 132.5,57.1667 131.5,57.5C 126.839,56.8321 124.839,58.8321 125.5,63.5C 122.859,65.8044 120.192,68.1377 117.5,70.5C 117.631,69.6236 117.298,68.9569 116.5,68.5C 115.571,69.6888 115.238,71.0222 115.5,72.5C 114.167,72.5 112.833,72.5 111.5,72.5C 111.5,74.8333 111.5,77.1667 111.5,79.5C 110.167,79.5 108.833,79.5 107.5,79.5C 107.386,81.7179 106.72,83.7179 105.5,85.5C 103.377,83.0787 101.044,82.9121 98.5,85C 102.121,87.0712 102.454,89.5712 99.5,92.5C 96.3399,87.7098 92.0066,84.0431 86.5,81.5C 85.1468,80.4763 84.4802,79.143 84.5,77.5C 81.6391,77.6584 78.9724,76.9917 76.5,75.5C 75.5581,75.6082 74.7247,75.9415 74,76.5C 67.0764,74.8754 62.0764,70.8754 59,64.5C 57.5806,63.5399 56.0806,62.7065 54.5,62C 56.0201,59.0839 55.3534,56.7505 52.5,55C 52.9783,53.6974 53.645,52.5307 54.5,51.5C 56.6851,49.3882 58.3518,46.8882 59.5,44C 60.7932,43.51 62.1266,43.3433 63.5,43.5C 63.4326,42.0413 63.7659,40.7079 64.5,39.5C 67.5525,39.4279 70.2192,38.4279 72.5,36.5 Z"/></g>
<g><path style="opacity:0.969" fill="#9d86b3" d="M 147.5,45.5 C 146.564,46.9744 145.23,47.9744 143.5,48.5C 143.5,47.5 143.5,46.5 143.5,45.5C 144.833,45.5 146.167,45.5 147.5,45.5 Z"/></g>
<g><path style="opacity:0.902" fill="#a68dbe" d="M 143.5,48.5 C 142.205,49.4884 140.872,50.4884 139.5,51.5C 139.5,50.5 139.5,49.5 139.5,48.5C 140.833,48.5 142.167,48.5 143.5,48.5 Z"/></g>
<g><path style="opacity:1" fill="#665286" d="M 64.5,39.5 C 63.7659,40.7079 63.4326,42.0413 63.5,43.5C 62.1266,43.3433 60.7932,43.51 59.5,44C 58.3518,46.8882 56.6851,49.3882 54.5,51.5C 53.1667,51.5 51.8333,51.5 50.5,51.5C 54.2781,46.383 58.9448,42.383 64.5,39.5 Z"/></g>
<g><path style="opacity:1" fill="#a18fbb" d="M 134.5,51.5 C 136.167,51.5 137.833,51.5 139.5,51.5C 137.777,53.2181 135.777,54.5514 133.5,55.5C 134.234,54.2921 134.567,52.9587 134.5,51.5 Z"/></g>
<g><path style="opacity:0.624" fill="#aea4c4" d="M 50.5,51.5 C 50.5,52.1667 50.5,52.8333 50.5,53.5C 48.8333,54.8333 47.1667,56.1667 45.5,57.5C 46.4194,54.9108 48.086,52.9108 50.5,51.5 Z"/></g>
<g><path style="opacity:1" fill="#7e699c" d="M 131.5,57.5 C 129.833,59.8333 127.833,61.8333 125.5,63.5C 124.839,58.8321 126.839,56.8321 131.5,57.5 Z"/></g>
<g><path style="opacity:1" fill="#4f2c73" d="M 50.5,51.5 C 51.8333,51.5 53.1667,51.5 54.5,51.5C 53.645,52.5307 52.9783,53.6974 52.5,55C 55.3534,56.7505 56.0201,59.0839 54.5,62C 56.0806,62.7065 57.5806,63.5399 59,64.5C 62.0764,70.8754 67.0764,74.8754 74,76.5C 74.7247,75.9415 75.5581,75.6082 76.5,75.5C 78.9724,76.9917 81.6391,77.6584 84.5,77.5C 84.4802,79.143 85.1468,80.4763 86.5,81.5C 92.0066,84.0431 96.3399,87.7098 99.5,92.5C 102.454,89.5712 102.121,87.0712 98.5,85C 101.044,82.9121 103.377,83.0787 105.5,85.5C 105.5,86.5 105.5,87.5 105.5,88.5C 104.325,88.281 103.325,88.6143 102.5,89.5C 101.314,93.2048 99.6478,96.5381 97.5,99.5C 96.1497,100.483 95.1497,101.816 94.5,103.5C 93.3023,99.5589 91.3023,96.0589 88.5,93C 87.1696,93.0772 85.8363,93.5772 84.5,94.5C 83.3109,94.2444 82.1442,93.9111 81,93.5C 79.9456,92.5176 79.4456,91.3509 79.5,90C 75.374,88.8813 71.7073,86.8813 68.5,84C 67.2068,83.51 65.8734,83.3433 64.5,83.5C 64.9228,80.7569 63.7561,79.4235 61,79.5C 59.6739,79.7549 58.6739,80.4216 58,81.5C 55.8669,78.1773 53.0335,75.5106 49.5,73.5C 48.2638,72.7542 46.9305,72.4208 45.5,72.5C 45.5127,69.1372 47.1794,66.9705 50.5,66C 49.8921,65.1301 49.0588,64.6301 48,64.5C 45.916,65.7689 43.7494,66.7689 41.5,67.5C 41.3505,66.448 41.5172,65.448 42,64.5C 43.5122,63.7433 44.8455,62.7433 46,61.5C 47.3229,58.6912 48.8229,56.0245 50.5,53.5C 50.5,52.8333 50.5,52.1667 50.5,51.5 Z"/></g>
<g><path style="opacity:0.608" fill="#aea8c6" d="M 42.5,60.5 C 41.9202,62.7488 40.5869,64.4154 38.5,65.5C 39.0798,63.2512 40.4131,61.5846 42.5,60.5 Z"/></g>
<g><path style="opacity:0.988" fill="#926cad" d="M 244.5,61.5 C 249.943,61.8929 254.609,63.8929 258.5,67.5C 254.229,66.1818 249.895,65.0151 245.5,64C 244.748,63.3292 244.414,62.4959 244.5,61.5 Z"/></g>
<g><path style="opacity:0.004" fill="#fefffe" d="M 157.5,64.5 C 158.833,65.1667 158.833,65.1667 157.5,64.5 Z"/></g>
<g><path style="opacity:1" fill="#8d6ba7" d="M 225.5,60.5 C 220.236,63.9263 214.57,66.5929 208.5,68.5C 208.167,68.5 207.833,68.5 207.5,68.5C 212.632,64.1133 218.632,61.4466 225.5,60.5 Z"/></g>
<g><path style="opacity:0.004" fill="#fefffe" d="M 171.5,70.5 C 172.833,71.1667 172.833,71.1667 171.5,70.5 Z"/></g>
<g><path style="opacity:1" fill="#7b3e9e" d="M 244.5,61.5 C 244.414,62.4959 244.748,63.3292 245.5,64C 249.895,65.0151 254.229,66.1818 258.5,67.5C 259.955,70.1819 261.289,72.8486 262.5,75.5C 265.808,76.065 267.808,78.065 268.5,81.5C 268.631,82.3764 268.298,83.0431 267.5,83.5C 263.939,82.2062 263.606,83.0396 266.5,86C 265.874,86.7504 265.374,87.5838 265,88.5C 264.89,85.3543 263.557,84.3543 261,85.5C 259.705,83.8783 258.205,82.545 256.5,81.5C 254.357,83.7765 251.69,85.1099 248.5,85.5C 242.685,82.6088 236.685,81.9422 230.5,83.5C 229.209,83.2627 228.209,83.596 227.5,84.5C 226.292,85.2341 224.959,85.5674 223.5,85.5C 222.167,85.5 220.833,85.5 219.5,85.5C 215.029,85.3276 214.696,84.4943 218.5,83C 215.785,82.1253 214.452,80.2919 214.5,77.5C 211.193,77.9368 208.193,77.2702 205.5,75.5C 206.32,73.0262 207.32,70.6929 208.5,68.5C 214.57,66.5929 220.236,63.9263 225.5,60.5C 232.03,59.0974 238.363,59.4307 244.5,61.5 Z"/></g>
<g><path style="opacity:0.616" fill="#bfaad4" d="M 207.5,68.5 C 205.833,70.8333 203.833,72.8333 201.5,74.5C 202.5,71.5 204.5,69.5 207.5,68.5 Z"/></g>
<g><path style="opacity:1" fill="#725793" d="M 117.5,70.5 C 115.745,73.6803 113.745,76.6803 111.5,79.5C 111.5,77.1667 111.5,74.8333 111.5,72.5C 112.833,72.5 114.167,72.5 115.5,72.5C 115.238,71.0222 115.571,69.6888 116.5,68.5C 117.298,68.9569 117.631,69.6236 117.5,70.5 Z"/></g>
<g><path style="opacity:1" fill="#8b6ba8" d="M 258.5,67.5 C 264.966,71.2967 269.633,76.63 272.5,83.5C 270.801,83.4729 269.467,82.8062 268.5,81.5C 267.808,78.065 265.808,76.065 262.5,75.5C 261.289,72.8486 259.955,70.1819 258.5,67.5 Z"/></g>
<g><path style="opacity:1" fill="#482a6d" d="M 50.5,53.5 C 48.8229,56.0245 47.3229,58.6912 46,61.5C 44.8455,62.7433 43.5122,63.7433 42,64.5C 41.5172,65.448 41.3505,66.448 41.5,67.5C 43.7494,66.7689 45.916,65.7689 48,64.5C 49.0588,64.6301 49.8921,65.1301 50.5,66C 47.1794,66.9705 45.5127,69.1372 45.5,72.5C 46.9305,72.4208 48.2638,72.7542 49.5,73.5C 53.0335,75.5106 55.8669,78.1773 58,81.5C 58.6739,80.4216 59.6739,79.7549 61,79.5C 63.7561,79.4235 64.9228,80.7569 64.5,83.5C 65.8734,83.3433 67.2068,83.51 68.5,84C 71.7073,86.8813 75.374,88.8813 79.5,90C 79.4456,91.3509 79.9456,92.5176 81,93.5C 82.1442,93.9111 83.3109,94.2444 84.5,94.5C 85.8363,93.5772 87.1696,93.0772 88.5,93C 91.3023,96.0589 93.3023,99.5589 94.5,103.5C 95.1497,101.816 96.1497,100.483 97.5,99.5C 97.3964,101.703 96.7298,103.703 95.5,105.5C 93.1971,106.411 91.6971,108.077 91,110.5C 90.0054,108.839 88.672,107.505 87,106.5C 81.8394,108.025 77.0061,107.358 72.5,104.5C 70.4148,103.459 68.7481,101.959 67.5,100C 64.8333,99.6667 62.1667,99.3333 59.5,99C 58.6634,97.9887 58.33,96.8221 58.5,95.5C 55.5525,95.7771 52.7191,95.4438 50,94.5C 47.053,94.9089 44.3863,95.9089 42,97.5C 40.8877,93.1946 40.3877,88.8613 40.5,84.5C 39.1667,84.5 37.8333,84.5 36.5,84.5C 35.9473,80.5443 35.1139,80.5443 34,84.5C 32.1079,83.3826 31.2746,81.7159 31.5,79.5C 34.6739,75.3056 37.0072,70.639 38.5,65.5C 40.5869,64.4154 41.9202,62.7488 42.5,60.5C 43.1667,59.1667 44.1667,58.1667 45.5,57.5C 47.1667,56.1667 48.8333,54.8333 50.5,53.5 Z"/></g>
<g><path style="opacity:1" fill="#80709e" d="M 111.5,79.5 C 110.241,83.0246 108.241,86.0246 105.5,88.5C 105.5,87.5 105.5,86.5 105.5,85.5C 106.72,83.7179 107.386,81.7179 107.5,79.5C 108.833,79.5 110.167,79.5 111.5,79.5 Z"/></g>
<g><path style="opacity:1" fill="#80689f" d="M 201.5,74.5 C 201.075,77.1192 200.075,79.4525 198.5,81.5C 197.833,81.5 197.167,81.5 196.5,81.5C 197.01,78.3257 198.677,75.9923 201.5,74.5 Z"/></g>
<g><path style="opacity:1" fill="#412866" d="M 31.5,79.5 C 31.2746,81.7159 32.1079,83.3826 34,84.5C 35.1139,80.5443 35.9473,80.5443 36.5,84.5C 37.8333,84.5 39.1667,84.5 40.5,84.5C 40.3877,88.8613 40.8877,93.1946 42,97.5C 44.3863,95.9089 47.053,94.9089 50,94.5C 52.7191,95.4438 55.5525,95.7771 58.5,95.5C 58.33,96.8221 58.6634,97.9887 59.5,99C 62.1667,99.3333 64.8333,99.6667 67.5,100C 68.7481,101.959 70.4148,103.459 72.5,104.5C 77.0061,107.358 81.8394,108.025 87,106.5C 88.672,107.505 90.0054,108.839 91,110.5C 91.6971,108.077 93.1971,106.411 95.5,105.5C 94.6758,108.764 94.3424,112.098 94.5,115.5C 92.8235,116.183 92.1568,117.517 92.5,119.5C 91.596,120.209 91.2627,121.209 91.5,122.5C 90.2876,123.23 89.2876,124.23 88.5,125.5C 88.5801,121.304 86.7468,120.637 83,123.5C 82.3741,121.009 81.5407,121.009 80.5,123.5C 76.8649,120.729 74.6982,121.729 74,126.5C 71.8325,124.536 69.4992,124.202 67,125.5C 65.1631,121.819 62.3298,119.485 58.5,118.5C 58.5,117.5 58.5,116.5 58.5,115.5C 57.1667,115.5 55.8333,115.5 54.5,115.5C 53.2615,111.478 50.9281,108.145 47.5,105.5C 45.7811,108.048 44.4478,107.715 43.5,104.5C 39.1713,107.349 36.1713,106.183 34.5,101C 34.7549,99.6739 35.4216,98.6739 36.5,98C 35.1414,96.7955 34.1414,95.2955 33.5,93.5C 31.0585,97.1346 27.7251,98.6346 23.5,98C 24.4061,96.3005 24.7394,94.4672 24.5,92.5C 26.2261,90.1799 26.8928,87.5133 26.5,84.5C 28.3334,82.9742 30,81.3075 31.5,79.5 Z"/></g>
<g><path style="opacity:1" fill="#6b358e" d="M 207.5,68.5 C 207.833,68.5 208.167,68.5 208.5,68.5C 207.32,70.6929 206.32,73.0262 205.5,75.5C 208.193,77.2702 211.193,77.9368 214.5,77.5C 214.452,80.2919 215.785,82.1253 218.5,83C 214.696,84.4943 215.029,85.3276 219.5,85.5C 218.853,87.1405 217.853,88.4739 216.5,89.5C 213.683,92.1416 212.183,95.475 212,99.5C 210.989,100.337 209.822,100.67 208.5,100.5C 208.937,97.1934 208.27,94.1934 206.5,91.5C 205.686,93.7662 205.186,96.0995 205,98.5C 203.644,99.3802 202.144,99.7135 200.5,99.5C 199.966,95.8976 199.966,92.3976 200.5,89C 199.133,86.6985 198.466,84.1985 198.5,81.5C 200.075,79.4525 201.075,77.1192 201.5,74.5C 203.833,72.8333 205.833,70.8333 207.5,68.5 Z"/></g>
<g><path style="opacity:1" fill="#695e8a" d="M 38.5,65.5 C 37.0072,70.639 34.6739,75.3056 31.5,79.5C 30,81.3075 28.3334,82.9742 26.5,84.5C 29.2536,77.3141 33.2536,70.9808 38.5,65.5 Z"/></g>
<g><path style="opacity:0.012" fill="#edecf8" d="M 230.5,83.5 C 231.167,83.5 231.833,83.5 232.5,83.5C 231.122,84.2344 229.622,84.9011 228,85.5C 227.601,85.2716 227.435,84.9382 227.5,84.5C 228.209,83.596 229.209,83.2627 230.5,83.5 Z"/></g>
<g><path style="opacity:1" fill="#6c348f" d="M 268.5,81.5 C 269.467,82.8062 270.801,83.4729 272.5,83.5C 272.892,87.5815 273.558,91.5815 274.5,95.5C 274.508,109.518 272.841,109.851 269.5,96.5C 268.253,98.0064 268.253,99.5064 269.5,101C 267.82,101.034 266.32,101.201 265,101.5C 264.5,100 264,98.5 263.5,97C 261.826,95.377 260.493,95.877 259.5,98.5C 260.313,99.8139 261.313,100.981 262.5,102C 261.057,103.067 259.724,104.234 258.5,105.5C 258.026,102.783 257.026,100.45 255.5,98.5C 255.699,95.059 255.199,91.7256 254,88.5C 251.942,87.7709 250.109,86.7709 248.5,85.5C 251.69,85.1099 254.357,83.7765 256.5,81.5C 258.205,82.545 259.705,83.8783 261,85.5C 263.557,84.3543 264.89,85.3543 265,88.5C 265.374,87.5838 265.874,86.7504 266.5,86C 263.606,83.0396 263.939,82.2062 267.5,83.5C 268.298,83.0431 268.631,82.3764 268.5,81.5 Z"/></g>
<g><path style="opacity:1" fill="#815c9c" d="M 230.5,83.5 C 236.685,81.9422 242.685,82.6088 248.5,85.5C 250.109,86.7709 251.942,87.7709 254,88.5C 255.199,91.7256 255.699,95.059 255.5,98.5C 255.909,103.692 255.242,108.692 253.5,113.5C 252.609,114.11 251.609,114.443 250.5,114.5C 257.609,96.3714 251.609,86.0381 232.5,83.5C 231.833,83.5 231.167,83.5 230.5,83.5 Z"/></g>
<g><path style="opacity:1" fill="#9277ac" d="M 219.5,85.5 C 220.833,85.5 222.167,85.5 223.5,85.5C 220.794,87.8706 218.461,90.5372 216.5,93.5C 216.5,92.1667 216.5,90.8333 216.5,89.5C 217.853,88.4739 218.853,87.1405 219.5,85.5 Z"/></g>
<g><path style="opacity:0.867" fill="#a396c1" d="M 274.5,87.5 C 275.738,89.2143 276.405,91.2143 276.5,93.5C 274.926,91.8984 274.259,89.8984 274.5,87.5 Z"/></g>
<g><path style="opacity:0.004" fill="#fefffe" d="M 308.5,97.5 C 309.833,98.1667 309.833,98.1667 308.5,97.5 Z"/></g>
<g><path style="opacity:0.004" fill="#fefffe" d="M 100.5,101.5 C 101.833,102.167 101.833,102.167 100.5,101.5 Z"/></g>
<g><path style="opacity:0.561" fill="#b3abce" d="M 276.5,94.5 C 277.188,99.5667 277.855,104.733 278.5,110C 277.934,110.995 277.267,111.828 276.5,112.5C 276.5,106.5 276.5,100.5 276.5,94.5 Z"/></g>
<g><path style="opacity:1" fill="#423867" d="M 26.5,84.5 C 26.8928,87.5133 26.2261,90.1799 24.5,92.5C 23.8826,92.6107 23.3826,92.944 23,93.5C 21.8633,96.7683 21.03,100.102 20.5,103.5C 21.0211,105.924 21.6877,108.257 22.5,110.5C 21.1128,108.578 19.2794,108.578 17,110.5C 15.9246,114.77 15.4246,119.103 15.5,123.5C 14.5269,121.052 14.1936,118.385 14.5,115.5C 14.5,114.167 14.5,112.833 14.5,111.5C 16.9698,101.733 20.9698,92.7333 26.5,84.5 Z"/></g>
<g><path style="opacity:1" fill="#6b5c8a" d="M 105.5,88.5 C 101.224,97.3464 97.5572,106.346 94.5,115.5C 94.3424,112.098 94.6758,108.764 95.5,105.5C 96.7298,103.703 97.3964,101.703 97.5,99.5C 99.6478,96.5381 101.314,93.2048 102.5,89.5C 103.325,88.6143 104.325,88.281 105.5,88.5 Z"/></g>
<g><path style="opacity:1" fill="#6a538a" d="M 196.5,81.5 C 194.665,87.6584 193.665,93.9917 193.5,100.5C 193.112,107.444 194.112,114.111 196.5,120.5C 198.009,124.484 196.675,126.818 192.5,127.5C 193.29,126.206 194.29,125.039 195.5,124C 191.122,115.712 189.622,106.545 191,96.5C 191.773,91.005 193.606,86.005 196.5,81.5 Z"/></g>
<g><path style="opacity:1" fill="#5c2f81" d="M 274.5,95.5 C 275.651,100.65 275.817,105.984 275,111.5C 273.003,115.327 271.503,119.327 270.5,123.5C 269.417,123.539 268.417,123.873 267.5,124.5C 266.808,123.975 266.308,123.308 266,122.5C 264.951,123.517 263.784,123.684 262.5,123C 263.654,122.086 263.487,121.253 262,120.5C 261,121.5 260,122.5 259,123.5C 257.991,122.342 256.658,121.675 255,121.5C 252.963,122.082 251.13,122.082 249.5,121.5C 250.847,118.807 252.18,116.14 253.5,113.5C 255.242,108.692 255.909,103.692 255.5,98.5C 257.026,100.45 258.026,102.783 258.5,105.5C 259.724,104.234 261.057,103.067 262.5,102C 261.313,100.981 260.313,99.8139 259.5,98.5C 260.493,95.877 261.826,95.377 263.5,97C 264,98.5 264.5,100 265,101.5C 266.32,101.201 267.82,101.034 269.5,101C 268.253,99.5064 268.253,98.0064 269.5,96.5C 272.841,109.851 274.508,109.518 274.5,95.5 Z"/></g>
<g><path style="opacity:1" fill="#592f7c" d="M 196.5,81.5 C 197.167,81.5 197.833,81.5 198.5,81.5C 198.466,84.1985 199.133,86.6985 200.5,89C 199.966,92.3976 199.966,95.8976 200.5,99.5C 202.144,99.7135 203.644,99.3802 205,98.5C 205.186,96.0995 205.686,93.7662 206.5,91.5C 208.27,94.1934 208.937,97.1934 208.5,100.5C 209.822,100.67 210.989,100.337 212,99.5C 212.183,95.475 213.683,92.1416 216.5,89.5C 216.5,90.8333 216.5,92.1667 216.5,93.5C 216.125,95.6976 215.458,97.6976 214.5,99.5C 213.441,104.675 213.441,110.009 214.5,115.5C 216.685,115.704 218.685,116.37 220.5,117.5C 219.188,122.726 221.021,126.059 226,127.5C 228.454,126.649 229.454,127.649 229,130.5C 226.081,129.813 223.248,128.813 220.5,127.5C 218.49,128.349 216.823,127.682 215.5,125.5C 214.167,126.5 212.833,127.5 211.5,128.5C 208.442,124.857 204.942,124.524 201,127.5C 199.581,125.007 198.081,122.674 196.5,120.5C 194.112,114.111 193.112,107.444 193.5,100.5C 193.665,93.9917 194.665,87.6584 196.5,81.5 Z"/></g>
<g><path style="opacity:0.906" fill="#8586a4" d="M 14.5,111.5 C 14.5,112.833 14.5,114.167 14.5,115.5C 13.6618,115.842 13.3284,116.508 13.5,117.5C 13.1667,117.5 12.8333,117.5 12.5,117.5C 12.595,115.214 13.2616,113.214 14.5,111.5 Z"/></g>
<g><path style="opacity:1" fill="#33245a" d="M 22.5,110.5 C 20.9671,112.79 21.3004,113.456 23.5,112.5C 25.6187,119.165 26.952,118.831 27.5,111.5C 28.4287,112.689 28.762,114.022 28.5,115.5C 30.604,115.201 32.604,115.534 34.5,116.5C 33.0909,116.654 31.4242,116.821 29.5,117C 29.0426,117.414 28.7093,117.914 28.5,118.5C 29.5,119.5 30.5,120.5 31.5,121.5C 32.8333,120.833 34.1667,120.167 35.5,119.5C 36.48,122.086 36.8134,124.753 36.5,127.5C 44.2888,127.843 44.2888,129.01 36.5,131C 38.4727,131.495 40.4727,131.662 42.5,131.5C 42.259,134.999 43.0924,135.332 45,132.5C 46.5,134 48,135.5 49.5,137C 54.2072,136.525 58.8739,136.358 63.5,136.5C 70.1399,137.728 76.8065,138.894 83.5,140C 83.1667,140.333 82.8333,140.667 82.5,141C 85.5939,141.471 87.2606,143.304 87.5,146.5C 88.1835,146.863 88.8501,147.196 89.5,147.5C 89.4111,153.544 89.4111,159.378 89.5,165C 87.4213,165.808 85.4213,165.641 83.5,164.5C 83.7093,163.914 84.0426,163.414 84.5,163C 83.1509,162.228 82.3176,161.061 82,159.5C 80.8333,160.667 79.6667,161.833 78.5,163C 79.8333,163.333 81.1667,163.667 82.5,164C 80.728,165.487 78.728,165.82 76.5,165C 77.8882,164.111 77.7215,163.611 76,163.5C 74.6998,164.707 73.1998,165.374 71.5,165.5C 71.9492,163.023 71.2825,161.023 69.5,159.5C 68.0295,160.381 67.1962,161.714 67,163.5C 66.5026,160.854 66.3359,158.187 66.5,155.5C 63.5794,155.146 61.2461,156.146 59.5,158.5C 57.3227,157.324 55.9893,155.49 55.5,153C 52.2096,152.411 50.7096,153.911 51,157.5C 49.4375,157.741 47.9375,157.241 46.5,156C 47.7932,155.51 49.1266,155.343 50.5,155.5C 50.5,153.833 50.5,152.167 50.5,150.5C 47.4124,150.803 45.7458,149.47 45.5,146.5C 42.786,146.75 40.1194,146.917 37.5,147C 39.0368,145.89 39.7035,144.39 39.5,142.5C 37.857,142.48 36.5237,143.147 35.5,144.5C 35.4767,139.345 33.1433,136.179 28.5,135C 29.6872,136.019 30.6872,137.186 31.5,138.5C 30.5,139.833 29.5,139.833 28.5,138.5C 27.1587,133.991 24.1587,131.491 19.5,131C 20.1667,129.667 20.8333,128.333 21.5,127C 19.4222,125.923 17.4222,124.757 15.5,123.5C 15.4246,119.103 15.9246,114.77 17,110.5C 19.2794,108.578 21.1128,108.578 22.5,110.5 Z"/></g>
<g><path style="opacity:1" fill="#735d91" d="M 214.5,99.5 C 214.051,106.391 216.051,112.391 220.5,117.5C 218.685,116.37 216.685,115.704 214.5,115.5C 213.441,110.009 213.441,104.675 214.5,99.5 Z"/></g>
<g><path style="opacity:1" fill="#867da0" d="M 94.5,115.5 C 94.2474,119.04 93.5808,122.373 92.5,125.5C 92.5,123.5 92.5,121.5 92.5,119.5C 92.1568,117.517 92.8235,116.183 94.5,115.5 Z"/></g>
<g><path style="opacity:0.831" fill="#8b79a6" d="M 250.5,114.5 C 250.167,117.5 248.5,119.167 245.5,119.5C 246.833,117.5 248.5,115.833 250.5,114.5 Z"/></g>
<g><path style="opacity:1" fill="#3a2560" d="M 24.5,92.5 C 24.7394,94.4672 24.4061,96.3005 23.5,98C 27.7251,98.6346 31.0585,97.1346 33.5,93.5C 34.1414,95.2955 35.1414,96.7955 36.5,98C 35.4216,98.6739 34.7549,99.6739 34.5,101C 36.1713,106.183 39.1713,107.349 43.5,104.5C 44.4478,107.715 45.7811,108.048 47.5,105.5C 50.9281,108.145 53.2615,111.478 54.5,115.5C 55.8333,115.5 57.1667,115.5 58.5,115.5C 58.5,116.5 58.5,117.5 58.5,118.5C 62.3298,119.485 65.1631,121.819 67,125.5C 69.4992,124.202 71.8325,124.536 74,126.5C 74.6982,121.729 76.8649,120.729 80.5,123.5C 81.5407,121.009 82.3741,121.009 83,123.5C 86.7468,120.637 88.5801,121.304 88.5,125.5C 89.2876,124.23 90.2876,123.23 91.5,122.5C 89.8809,130.733 89.2142,139.066 89.5,147.5C 88.8501,147.196 88.1835,146.863 87.5,146.5C 87.2606,143.304 85.5939,141.471 82.5,141C 82.8333,140.667 83.1667,140.333 83.5,140C 76.8065,138.894 70.1399,137.728 63.5,136.5C 58.8739,136.358 54.2072,136.525 49.5,137C 48,135.5 46.5,134 45,132.5C 43.0924,135.332 42.259,134.999 42.5,131.5C 40.4727,131.662 38.4727,131.495 36.5,131C 44.2888,129.01 44.2888,127.843 36.5,127.5C 36.8134,124.753 36.48,122.086 35.5,119.5C 34.1667,120.167 32.8333,120.833 31.5,121.5C 30.5,120.5 29.5,119.5 28.5,118.5C 28.7093,117.914 29.0426,117.414 29.5,117C 31.4242,116.821 33.0909,116.654 34.5,116.5C 32.604,115.534 30.604,115.201 28.5,115.5C 28.762,114.022 28.4287,112.689 27.5,111.5C 26.952,118.831 25.6187,119.165 23.5,112.5C 21.3004,113.456 20.9671,112.79 22.5,110.5C 21.6877,108.257 21.0211,105.924 20.5,103.5C 21.03,100.102 21.8633,96.7683 23,93.5C 23.3826,92.944 23.8826,92.6107 24.5,92.5 Z"/></g>
<g><path style="opacity:1" fill="#27214e" d="M 14.5,115.5 C 14.1936,118.385 14.5269,121.052 15.5,123.5C 15.8769,125.258 16.5435,126.925 17.5,128.5C 16.8848,130.116 15.8848,131.449 14.5,132.5C 16.6644,135.159 17.9977,138.159 18.5,141.5C 19.5,141.5 20.5,141.5 21.5,141.5C 21.5,142.5 21.5,143.5 21.5,144.5C 22.5,144.5 23.5,144.5 24.5,144.5C 25.1667,147.5 25.8333,150.5 26.5,153.5C 30.9575,154.611 34.2908,157.277 36.5,161.5C 36.0814,162.672 35.4147,163.672 34.5,164.5C 36.7948,166.48 39.4615,167.647 42.5,168C 39.6667,169.833 39.8333,171.333 43,172.5C 44.0437,171.377 44.7104,170.044 45,168.5C 46.0836,169.665 46.9169,170.998 47.5,172.5C 58.9065,173.508 70.2398,174.008 81.5,174C 79.0989,174.805 79.2656,175.638 82,176.5C 82.677,174.311 83.8437,173.978 85.5,175.5C 86.8333,174.833 88.1667,174.167 89.5,173.5C 90.6446,174.776 90.6446,176.109 89.5,177.5C 91.4,180.177 92.4,179.677 92.5,176C 90.7529,169.312 90.0862,162.478 90.5,155.5C 90.8333,155.5 91.1667,155.5 91.5,155.5C 92.4037,161.095 93.0704,166.761 93.5,172.5C 93.4095,175.152 94.0762,177.485 95.5,179.5C 95.6429,186.233 97.9763,191.9 102.5,196.5C 102.118,200.72 103.784,203.72 107.5,205.5C 107.427,207.027 108.094,208.027 109.5,208.5C 109.5,209.167 109.5,209.833 109.5,210.5C 109.373,212.915 109.207,215.249 109,217.5C 109.333,217.167 109.667,216.833 110,216.5C 110.359,219.544 111.026,219.878 112,217.5C 113.561,220.783 115.727,223.617 118.5,226C 117,226.5 115.5,227 114,227.5C 111.678,225.678 109.511,223.678 107.5,221.5C 105.87,222.898 104.036,223.898 102,224.5C 98.2104,223.864 94.3771,223.197 90.5,222.5C 87.7447,221.369 85.4114,219.702 83.5,217.5C 80.4234,218.877 77.4234,218.71 74.5,217C 77.028,215.983 77.028,214.816 74.5,213.5C 75.0253,212.808 75.6919,212.308 76.5,212C 74.4078,211.047 74.0745,209.714 75.5,208C 73.1756,206.838 70.8422,205.671 68.5,204.5C 65.949,200.707 62.949,197.374 59.5,194.5C 58.9094,196.051 58.576,197.718 58.5,199.5C 53.69,197.951 48.69,196.951 43.5,196.5C 46.6405,195.909 49.6405,195.076 52.5,194C 51.0564,192.293 49.723,190.46 48.5,188.5C 46.6675,187.752 45.0009,186.752 43.5,185.5C 42.065,187.401 40.3983,187.734 38.5,186.5C 35.8545,184.868 34.5211,182.535 34.5,179.5C 29.8333,178.833 27.1667,176.167 26.5,171.5C 25.0222,171.762 23.6888,171.429 22.5,170.5C 21.6034,167.992 20.2701,165.826 18.5,164C 18.9054,163.055 19.572,162.388 20.5,162C 19.0564,160.293 17.723,158.46 16.5,156.5C 14.0894,155.639 12.0894,154.306 10.5,152.5C 9.74381,148.527 9.41048,144.694 9.5,141C 9.96971,132.89 11.303,125.057 13.5,117.5C 13.3284,116.508 13.6618,115.842 14.5,115.5 Z"/></g>
<g><path style="opacity:1" fill="#4f2d73" d="M 253.5,113.5 C 252.18,116.14 250.847,118.807 249.5,121.5C 246.495,121.25 244.662,122.583 244,125.5C 243.086,124.346 242.253,124.513 241.5,126C 237.713,126.16 234.046,126.826 230.5,128C 234.784,129.663 239.117,129.996 243.5,129C 245.959,129.724 246.959,131.057 246.5,133C 243.901,133.769 241.401,133.602 239,132.5C 238.333,135.167 237.667,135.167 237,132.5C 236.667,132.833 236.333,133.167 236,133.5C 235.311,132.643 234.478,131.977 233.5,131.5C 228.84,133.735 224.007,134.068 219,132.5C 215.255,133.297 211.421,133.797 207.5,134C 206.643,134.689 205.977,135.522 205.5,136.5C 207.242,136.99 209.409,137.323 212,137.5C 214.352,137.695 216.352,137.028 218,135.5C 221.317,137.834 224.817,137.834 228.5,135.5C 234.807,136.261 240.974,137.594 247,139.5C 248,138.833 249,138.167 250,137.5C 251.699,138.406 253.533,138.739 255.5,138.5C 256.885,139.302 256.718,139.969 255,140.5C 252.093,141.596 249.259,142.762 246.5,144C 236.806,144.725 227.14,144.559 217.5,143.5C 215.847,143.34 214.514,142.674 213.5,141.5C 212.402,140.603 212.402,139.77 213.5,139C 208.801,137.287 206.468,138.787 206.5,143.5C 204.901,143.232 203.568,143.566 202.5,144.5C 199.706,144.415 197.206,144.082 195,143.5C 192.421,145.355 189.588,146.688 186.5,147.5C 186.762,146.022 186.429,144.689 185.5,143.5C 184.15,144.95 182.484,145.617 180.5,145.5C 180.366,143.708 180.699,142.042 181.5,140.5C 184.594,137.662 187.927,134.995 191.5,132.5C 192.452,130.955 192.785,129.288 192.5,127.5C 196.675,126.818 198.009,124.484 196.5,120.5C 198.081,122.674 199.581,125.007 201,127.5C 204.942,124.524 208.442,124.857 211.5,128.5C 212.833,127.5 214.167,126.5 215.5,125.5C 216.823,127.682 218.49,128.349 220.5,127.5C 223.248,128.813 226.081,129.813 229,130.5C 229.454,127.649 228.454,126.649 226,127.5C 221.021,126.059 219.188,122.726 220.5,117.5C 225.68,121.894 231.68,123.561 238.5,122.5C 241.577,122.821 243.91,121.821 245.5,119.5C 248.5,119.167 250.167,117.5 250.5,114.5C 251.609,114.443 252.609,114.11 253.5,113.5 Z"/></g>
<g><path style="opacity:0.875" fill="#907faa" d="M 245.5,119.5 C 243.91,121.821 241.577,122.821 238.5,122.5C 240.649,121.264 242.982,120.264 245.5,119.5 Z"/></g>
<g><path style="opacity:1" fill="#665186" d="M 272.5,83.5 C 273.674,84.5137 274.34,85.847 274.5,87.5C 274.259,89.8984 274.926,91.8984 276.5,93.5C 276.5,93.8333 276.5,94.1667 276.5,94.5C 276.5,100.5 276.5,106.5 276.5,112.5C 268.857,139.281 251.19,150.448 223.5,146C 221.148,145.76 219.148,144.927 217.5,143.5C 227.14,144.559 236.806,144.725 246.5,144C 249.259,142.762 252.093,141.596 255,140.5C 256.718,139.969 256.885,139.302 255.5,138.5C 256.78,137.069 258.447,136.402 260.5,136.5C 260.5,134.833 260.5,133.167 260.5,131.5C 262.288,131.785 263.955,131.452 265.5,130.5C 266.861,127.828 268.528,125.495 270.5,123.5C 271.503,119.327 273.003,115.327 275,111.5C 275.817,105.984 275.651,100.65 274.5,95.5C 273.558,91.5815 272.892,87.5815 272.5,83.5 Z"/></g>
<g><path style="opacity:1" fill="#502875" d="M 270.5,123.5 C 268.528,125.495 266.861,127.828 265.5,130.5C 263.955,131.452 262.288,131.785 260.5,131.5C 260.5,133.167 260.5,134.833 260.5,136.5C 258.447,136.402 256.78,137.069 255.5,138.5C 253.533,138.739 251.699,138.406 250,137.5C 249,138.167 248,138.833 247,139.5C 240.974,137.594 234.807,136.261 228.5,135.5C 224.817,137.834 221.317,137.834 218,135.5C 216.352,137.028 214.352,137.695 212,137.5C 209.409,137.323 207.242,136.99 205.5,136.5C 205.977,135.522 206.643,134.689 207.5,134C 211.421,133.797 215.255,133.297 219,132.5C 224.007,134.068 228.84,133.735 233.5,131.5C 234.478,131.977 235.311,132.643 236,133.5C 236.333,133.167 236.667,132.833 237,132.5C 237.667,135.167 238.333,135.167 239,132.5C 241.401,133.602 243.901,133.769 246.5,133C 246.959,131.057 245.959,129.724 243.5,129C 239.117,129.996 234.784,129.663 230.5,128C 234.046,126.826 237.713,126.16 241.5,126C 242.253,124.513 243.086,124.346 244,125.5C 244.662,122.583 246.495,121.25 249.5,121.5C 251.13,122.082 252.963,122.082 255,121.5C 256.658,121.675 257.991,122.342 259,123.5C 260,122.5 261,121.5 262,120.5C 263.487,121.253 263.654,122.086 262.5,123C 263.784,123.684 264.951,123.517 266,122.5C 266.308,123.308 266.808,123.975 267.5,124.5C 268.417,123.873 269.417,123.539 270.5,123.5 Z"/></g>
<g><path style="opacity:1" fill="#604d81" d="M 192.5,127.5 C 192.785,129.288 192.452,130.955 191.5,132.5C 187.927,134.995 184.594,137.662 181.5,140.5C 180.833,140.5 180.167,140.5 179.5,140.5C 183.5,135.833 187.833,131.5 192.5,127.5 Z"/></g>
<g><path style="opacity:0.004" fill="#fefffe" d="M 109.5,136.5 C 110.833,137.167 110.833,137.167 109.5,136.5 Z"/></g>
<g><path style="opacity:0.004" fill="#fefffe" d="M 210.5,141.5 C 210.833,141.5 211.167,141.5 211.5,141.5C 211.315,142.17 210.981,142.17 210.5,141.5 Z"/></g>
<g><path style="opacity:0.004" fill="#fefffe" d="M 152.5,143.5 C 153.833,144.167 153.833,144.167 152.5,143.5 Z"/></g>
<g><path style="opacity:1" fill="#766591" d="M 213.5,141.5 C 212.833,141.5 212.167,141.5 211.5,141.5C 211.167,140.167 210.833,140.167 210.5,141.5C 207.124,144.878 203.457,147.878 199.5,150.5C 199.461,149.417 199.127,148.417 198.5,147.5C 200.332,146.943 201.665,145.943 202.5,144.5C 203.568,143.566 204.901,143.232 206.5,143.5C 206.468,138.787 208.801,137.287 213.5,139C 212.402,139.77 212.402,140.603 213.5,141.5 Z"/></g>
<g><path style="opacity:0.435" fill="#9596b2" d="M 92.5,125.5 C 91.7865,135.484 91.4532,145.484 91.5,155.5C 91.1667,155.5 90.8333,155.5 90.5,155.5C 90.0827,145.275 90.7494,135.275 92.5,125.5 Z"/></g>
<g><path style="opacity:1" fill="#534474" d="M 179.5,140.5 C 180.244,143.95 178.91,145.616 175.5,145.5C 176.053,150.618 173.719,153.284 168.5,153.5C 166.016,155.8 164.016,158.467 162.5,161.5C 160.419,162.99 158.086,163.99 155.5,164.5C 163.167,156.167 171.167,148.167 179.5,140.5 Z"/></g>
<g><path style="opacity:1" fill="#47296a" d="M 179.5,140.5 C 180.167,140.5 180.833,140.5 181.5,140.5C 180.699,142.042 180.366,143.708 180.5,145.5C 182.484,145.617 184.15,144.95 185.5,143.5C 186.429,144.689 186.762,146.022 186.5,147.5C 189.588,146.688 192.421,145.355 195,143.5C 197.206,144.082 199.706,144.415 202.5,144.5C 201.665,145.943 200.332,146.943 198.5,147.5C 199.127,148.417 199.461,149.417 199.5,150.5C 198.167,151.167 197.167,152.167 196.5,153.5C 195.5,155.167 194.167,156.5 192.5,157.5C 191.448,157.351 190.448,157.517 189.5,158C 187.236,161.402 184.236,163.902 180.5,165.5C 178.167,165.5 175.833,165.5 173.5,165.5C 172.947,169.456 172.114,169.456 171,165.5C 168.379,166.991 165.545,167.658 162.5,167.5C 162.5,165.5 162.5,163.5 162.5,161.5C 164.016,158.467 166.016,155.8 168.5,153.5C 173.719,153.284 176.053,150.618 175.5,145.5C 178.91,145.616 180.244,143.95 179.5,140.5 Z"/></g>
<g><path style="opacity:1" fill="#2c2254" d="M 92.5,119.5 C 92.5,121.5 92.5,123.5 92.5,125.5C 90.7494,135.275 90.0827,145.275 90.5,155.5C 90.0862,162.478 90.7529,169.312 92.5,176C 92.4,179.677 91.4,180.177 89.5,177.5C 90.6446,176.109 90.6446,174.776 89.5,173.5C 88.1667,174.167 86.8333,174.833 85.5,175.5C 83.8437,173.978 82.677,174.311 82,176.5C 79.2656,175.638 79.0989,174.805 81.5,174C 70.2398,174.008 58.9065,173.508 47.5,172.5C 46.9169,170.998 46.0836,169.665 45,168.5C 44.7104,170.044 44.0437,171.377 43,172.5C 39.8333,171.333 39.6667,169.833 42.5,168C 39.4615,167.647 36.7948,166.48 34.5,164.5C 35.4147,163.672 36.0814,162.672 36.5,161.5C 34.2908,157.277 30.9575,154.611 26.5,153.5C 25.8333,150.5 25.1667,147.5 24.5,144.5C 23.5,144.5 22.5,144.5 21.5,144.5C 21.5,143.5 21.5,142.5 21.5,141.5C 20.5,141.5 19.5,141.5 18.5,141.5C 17.9977,138.159 16.6644,135.159 14.5,132.5C 15.8848,131.449 16.8848,130.116 17.5,128.5C 16.5435,126.925 15.8769,125.258 15.5,123.5C 17.4222,124.757 19.4222,125.923 21.5,127C 20.8333,128.333 20.1667,129.667 19.5,131C 24.1587,131.491 27.1587,133.991 28.5,138.5C 29.5,139.833 30.5,139.833 31.5,138.5C 30.6872,137.186 29.6872,136.019 28.5,135C 33.1433,136.179 35.4767,139.345 35.5,144.5C 36.5237,143.147 37.857,142.48 39.5,142.5C 39.7035,144.39 39.0368,145.89 37.5,147C 40.1194,146.917 42.786,146.75 45.5,146.5C 45.7458,149.47 47.4124,150.803 50.5,150.5C 50.5,152.167 50.5,153.833 50.5,155.5C 49.1266,155.343 47.7932,155.51 46.5,156C 47.9375,157.241 49.4375,157.741 51,157.5C 50.7096,153.911 52.2096,152.411 55.5,153C 55.9893,155.49 57.3227,157.324 59.5,158.5C 61.2461,156.146 63.5794,155.146 66.5,155.5C 66.3359,158.187 66.5026,160.854 67,163.5C 67.1962,161.714 68.0295,160.381 69.5,159.5C 71.2825,161.023 71.9492,163.023 71.5,165.5C 73.1998,165.374 74.6998,164.707 76,163.5C 77.7215,163.611 77.8882,164.111 76.5,165C 78.728,165.82 80.728,165.487 82.5,164C 81.1667,163.667 79.8333,163.333 78.5,163C 79.6667,161.833 80.8333,160.667 82,159.5C 82.3176,161.061 83.1509,162.228 84.5,163C 84.0426,163.414 83.7093,163.914 83.5,164.5C 85.4213,165.641 87.4213,165.808 89.5,165C 89.4111,159.378 89.4111,153.544 89.5,147.5C 89.2142,139.066 89.8809,130.733 91.5,122.5C 91.2627,121.209 91.596,120.209 92.5,119.5 Z"/></g>
<g><path style="opacity:0.012" fill="#f4f3ff" d="M 199.5,150.5 C 199.5,152.5 198.5,153.5 196.5,153.5C 197.167,152.167 198.167,151.167 199.5,150.5 Z"/></g>
<g><path style="opacity:1" fill="#6a6089" d="M 192.5,157.5 C 187.5,163.167 182.167,168.5 176.5,173.5C 177.535,171.795 177.535,170.128 176.5,168.5C 178.332,167.943 179.665,166.943 180.5,165.5C 184.236,163.902 187.236,161.402 189.5,158C 190.448,157.517 191.448,157.351 192.5,157.5 Z"/></g>
<g><path style="opacity:0.808" fill="#7b799c" d="M 155.5,164.5 C 155.167,166.833 153.833,168.167 151.5,168.5C 152.5,166.833 153.833,165.5 155.5,164.5 Z"/></g>
<g><path style="opacity:1" fill="#222048" d="M 10.5,152.5 C 12.0894,154.306 14.0894,155.639 16.5,156.5C 17.723,158.46 19.0564,160.293 20.5,162C 19.572,162.388 18.9054,163.055 18.5,164C 20.2701,165.826 21.6034,167.992 22.5,170.5C 23.6888,171.429 25.0222,171.762 26.5,171.5C 27.1667,176.167 29.8333,178.833 34.5,179.5C 34.5211,182.535 35.8545,184.868 38.5,186.5C 40.3983,187.734 42.065,187.401 43.5,185.5C 45.0009,186.752 46.6675,187.752 48.5,188.5C 49.723,190.46 51.0564,192.293 52.5,194C 49.6405,195.076 46.6405,195.909 43.5,196.5C 48.69,196.951 53.69,197.951 58.5,199.5C 58.576,197.718 58.9094,196.051 59.5,194.5C 62.949,197.374 65.949,200.707 68.5,204.5C 70.8422,205.671 73.1756,206.838 75.5,208C 74.0745,209.714 74.4078,211.047 76.5,212C 75.6919,212.308 75.0253,212.808 74.5,213.5C 77.028,214.816 77.028,215.983 74.5,217C 77.4234,218.71 80.4234,218.877 83.5,217.5C 85.4114,219.702 87.7447,221.369 90.5,222.5C 94.3771,223.197 98.2104,223.864 102,224.5C 104.036,223.898 105.87,222.898 107.5,221.5C 109.511,223.678 111.678,225.678 114,227.5C 115.5,227 117,226.5 118.5,226C 115.727,223.617 113.561,220.783 112,217.5C 111.026,219.878 110.359,219.544 110,216.5C 109.667,216.833 109.333,217.167 109,217.5C 109.207,215.249 109.373,212.915 109.5,210.5C 110.793,211.842 111.626,213.509 112,215.5C 114.761,216.499 116.094,218.499 116,221.5C 116.671,220.748 117.504,220.414 118.5,220.5C 118.343,221.873 118.51,223.207 119,224.5C 122.617,226.752 124.284,229.752 124,233.5C 125.867,233.835 128.034,234.335 130.5,235C 131.357,235.689 132.023,236.522 132.5,237.5C 131.811,239.444 131.311,241.444 131,243.5C 129.701,243.966 128.201,243.966 126.5,243.5C 126.5,242.167 126.5,240.833 126.5,239.5C 125.178,239.33 124.011,239.663 123,240.5C 116.888,239.852 110.721,239.185 104.5,238.5C 100.167,236.833 97.1667,233.833 95.5,229.5C 91.8647,228.394 88.1981,227.394 84.5,226.5C 82.6345,221.296 78.9679,218.963 73.5,219.5C 73.5,216.833 73.5,214.167 73.5,211.5C 69.774,211.823 66.1073,211.489 62.5,210.5C 63.1667,209.833 63.8333,209.167 64.5,208.5C 63.4783,207.646 62.6449,206.646 62,205.5C 61.5172,206.448 61.3505,207.448 61.5,208.5C 60.5,208.5 59.5,208.5 58.5,208.5C 58.5,207.167 58.5,205.833 58.5,204.5C 55.8127,204.664 53.146,204.497 50.5,204C 51.8333,203.333 51.8333,202.667 50.5,202C 47.8333,201.667 45.1667,201.333 42.5,201C 41.1279,199.758 40.1279,198.258 39.5,196.5C 37.2573,195.526 34.924,195.192 32.5,195.5C 32.3807,191.875 30.5473,189.541 27,188.5C 26.5065,186.866 26.3398,185.199 26.5,183.5C 23.8559,183.16 21.5225,183.827 19.5,185.5C 18.5344,183.604 18.2011,181.604 18.5,179.5C 15.1954,179.788 12.3621,178.788 10,176.5C 9.73539,172.388 9.56872,168.054 9.5,163.5C 10.5,163.5 11.5,163.5 12.5,163.5C 11.5367,159.899 10.87,156.233 10.5,152.5 Z"/></g>
<g><path style="opacity:1" fill="#36255c" d="M 162.5,161.5 C 162.5,163.5 162.5,165.5 162.5,167.5C 165.545,167.658 168.379,166.991 171,165.5C 172.114,169.456 172.947,169.456 173.5,165.5C 175.833,165.5 178.167,165.5 180.5,165.5C 179.665,166.943 178.332,167.943 176.5,168.5C 177.535,170.128 177.535,171.795 176.5,173.5C 176.5,174.167 176.167,174.5 175.5,174.5C 174.5,174.833 173.833,175.5 173.5,176.5C 172.167,177.167 171.167,178.167 170.5,179.5C 170.5,179.833 170.5,180.167 170.5,180.5C 169.427,181.251 169.26,182.251 170,183.5C 172.04,185.37 173.873,187.37 175.5,189.5C 175.833,190.5 176.5,191.167 177.5,191.5C 179.167,192.5 180.5,193.833 181.5,195.5C 181.5,197.167 181.5,198.833 181.5,200.5C 180.578,196.673 179.245,196.673 177.5,200.5C 171.59,203.216 171.257,202.716 176.5,199C 175.833,198 175.167,197 174.5,196C 171.78,195.277 169.613,193.777 168,191.5C 166.602,192.051 165.268,192.384 164,192.5C 163.508,191.451 163.674,190.451 164.5,189.5C 163.354,188.281 162.354,186.948 161.5,185.5C 159.65,186.242 158.984,187.242 159.5,188.5C 158.643,187.264 157.977,185.931 157.5,184.5C 152.351,184.336 148.684,182.003 146.5,177.5C 147.982,174.378 149.649,171.378 151.5,168.5C 153.833,168.167 155.167,166.833 155.5,164.5C 158.086,163.99 160.419,162.99 162.5,161.5 Z"/></g>
<g><path style="opacity:0.812" fill="#8c90a9" d="M 93.5,172.5 C 94.9238,174.515 95.5905,176.848 95.5,179.5C 94.0762,177.485 93.4095,175.152 93.5,172.5 Z"/></g>
<g><path style="opacity:0.008" fill="#e2e1f3" d="M 175.5,174.5 C 175.5,175.833 174.833,176.5 173.5,176.5C 173.833,175.5 174.5,174.833 175.5,174.5 Z"/></g>
<g><path style="opacity:0.006" fill="#eaecf7" d="M 173.5,176.5 C 173.34,178.153 172.674,179.486 171.5,180.5C 171.5,179.833 171.167,179.5 170.5,179.5C 171.167,178.167 172.167,177.167 173.5,176.5 Z"/></g>
<g><path style="opacity:0.322" fill="#c0c3d7" d="M 7.5,177.5 C 8.46822,179.607 8.80155,181.941 8.5,184.5C 8.5,185.167 8.5,185.833 8.5,186.5C 7.79476,183.772 7.12809,180.939 6.5,178C 6.72845,177.601 7.06178,177.435 7.5,177.5 Z"/></g>
<g><path style="opacity:1" fill="#3f3a65" d="M 151.5,168.5 C 149.649,171.378 147.982,174.378 146.5,177.5C 145.504,177.414 144.671,177.748 144,178.5C 143.798,180.256 143.298,181.922 142.5,183.5C 141.522,183.023 140.689,182.357 140,181.5C 138.871,183.141 137.371,184.141 135.5,184.5C 140.5,178.833 145.833,173.5 151.5,168.5 Z"/></g>
<g><path style="opacity:0.008" fill="#fefffe" d="M 170.5,180.5 C 170.833,180.5 171.167,180.5 171.5,180.5C 171.315,181.17 170.981,181.17 170.5,180.5 Z"/></g>
<g><path style="opacity:0.004" fill="#fefffe" d="M 295.5,181.5 C 296.833,182.167 296.833,182.167 295.5,181.5 Z"/></g>
<g><path style="opacity:1" fill="#1e2246" d="M 12.5,117.5 C 12.8333,117.5 13.1667,117.5 13.5,117.5C 11.303,125.057 9.96971,132.89 9.5,141C 9.41048,144.694 9.74381,148.527 10.5,152.5C 10.87,156.233 11.5367,159.899 12.5,163.5C 11.5,163.5 10.5,163.5 9.5,163.5C 9.56872,168.054 9.73539,172.388 10,176.5C 12.3621,178.788 15.1954,179.788 18.5,179.5C 18.2011,181.604 18.5344,183.604 19.5,185.5C 21.5225,183.827 23.8559,183.16 26.5,183.5C 26.3398,185.199 26.5065,186.866 27,188.5C 30.5473,189.541 32.3807,191.875 32.5,195.5C 34.924,195.192 37.2573,195.526 39.5,196.5C 40.1279,198.258 41.1279,199.758 42.5,201C 45.1667,201.333 47.8333,201.667 50.5,202C 51.8333,202.667 51.8333,203.333 50.5,204C 53.146,204.497 55.8127,204.664 58.5,204.5C 58.5,205.833 58.5,207.167 58.5,208.5C 59.5,208.5 60.5,208.5 61.5,208.5C 61.3505,207.448 61.5172,206.448 62,205.5C 62.6449,206.646 63.4783,207.646 64.5,208.5C 63.8333,209.167 63.1667,209.833 62.5,210.5C 66.1073,211.489 69.774,211.823 73.5,211.5C 73.5,214.167 73.5,216.833 73.5,219.5C 78.9679,218.963 82.6345,221.296 84.5,226.5C 88.1981,227.394 91.8647,228.394 95.5,229.5C 97.1667,233.833 100.167,236.833 104.5,238.5C 110.721,239.185 116.888,239.852 123,240.5C 124.011,239.663 125.178,239.33 126.5,239.5C 126.5,240.833 126.5,242.167 126.5,243.5C 128.201,243.966 129.701,243.966 131,243.5C 131.311,241.444 131.811,239.444 132.5,237.5C 132.023,236.522 131.357,235.689 130.5,235C 128.034,234.335 125.867,233.835 124,233.5C 124.284,229.752 122.617,226.752 119,224.5C 118.51,223.207 118.343,221.873 118.5,220.5C 119.5,220.833 120.167,221.5 120.5,222.5C 121.713,225.225 123.546,227.559 126,229.5C 126.483,230.448 126.649,231.448 126.5,232.5C 128.565,232.517 130.565,232.85 132.5,233.5C 132.709,234.922 133.209,236.255 134,237.5C 134.77,238.598 135.603,238.598 136.5,237.5C 141.841,240.836 147.175,244.17 152.5,247.5C 154.221,251.174 157.221,252.507 161.5,251.5C 185.183,261.009 209.517,263.009 234.5,257.5C 239.703,256.991 244.37,255.324 248.5,252.5C 252.866,253.251 256.199,251.918 258.5,248.5C 260.527,248.662 262.527,248.495 264.5,248C 265.885,246.351 267.551,245.184 269.5,244.5C 270.423,248.064 270.756,251.731 270.5,255.5C 272.292,255.634 273.958,255.301 275.5,254.5C 275.202,258.623 274.369,262.623 273,266.5C 270.571,267.029 268.738,268.363 267.5,270.5C 265.544,269.452 263.544,268.952 261.5,269C 262.654,269.914 262.487,270.747 261,271.5C 260.505,273.473 260.338,275.473 260.5,277.5C 259.533,278.806 258.199,279.473 256.5,279.5C 256.634,281.292 256.301,282.958 255.5,284.5C 255.5,285.167 255.167,285.5 254.5,285.5C 253.609,286.11 252.609,286.443 251.5,286.5C 246.538,286.255 242.871,288.255 240.5,292.5C 238.833,293.167 237.167,293.833 235.5,294.5C 235.863,295.183 236.196,295.85 236.5,296.5C 235.833,296.5 235.5,296.833 235.5,297.5C 235.158,298.338 234.492,298.672 233.5,298.5C 231.847,298.66 230.514,299.326 229.5,300.5C 228.508,300.328 227.842,300.662 227.5,301.5C 227.158,302.338 226.492,302.672 225.5,302.5C 224.508,302.328 223.842,302.662 223.5,303.5C 223.167,303.5 222.833,303.5 222.5,303.5C 221.508,303.328 220.842,303.662 220.5,304.5C 218.574,306.293 216.241,307.293 213.5,307.5C 209.896,307.049 206.896,308.049 204.5,310.5C 196.242,313.657 187.575,315.324 178.5,315.5C 174.5,315.5 170.5,315.5 166.5,315.5C 158.77,315.55 151.104,314.884 143.5,313.5C 144.025,312.808 144.692,312.308 145.5,312C 142.641,311.447 139.808,311.614 137,312.5C 134.462,312.019 132.962,311.019 132.5,309.5C 130.529,309.996 128.529,310.33 126.5,310.5C 122.132,309.248 117.799,308.248 113.5,307.5C 113.439,304.95 112.106,303.45 109.5,303C 103.868,301.843 98.2016,301.009 92.5,300.5C 91.4676,297.467 89.4676,295.467 86.5,294.5C 86.5858,293.504 86.2524,292.671 85.5,292C 86.6086,291.362 87.7753,290.862 89,290.5C 92.2009,291.791 95.2009,293.457 98,295.5C 100.598,294.902 102.431,296.069 103.5,299C 104.448,299.483 105.448,299.649 106.5,299.5C 106.852,295.818 108.852,293.484 112.5,292.5C 111.667,292.167 110.833,291.833 110,291.5C 107.931,292.27 106.265,293.603 105,295.5C 101.539,292.715 102.039,291.048 106.5,290.5C 106.5,288.833 106.5,287.167 106.5,285.5C 100.463,285.829 94.4632,285.496 88.5,284.5C 84.8333,283.5 82.5,281.167 81.5,277.5C 80.5318,276.511 79.3651,275.844 78,275.5C 75.851,276.299 73.6843,277.133 71.5,278C 70.6634,279.011 70.33,280.178 70.5,281.5C 68.8008,281.66 67.1341,281.494 65.5,281C 66.3366,279.989 66.67,278.822 66.5,277.5C 69.4747,277.693 71.9747,276.693 74,274.5C 74.4993,269.511 74.6659,264.511 74.5,259.5C 71.8333,259.5 69.1667,259.5 66.5,259.5C 66.5,254.167 66.5,248.833 66.5,243.5C 71.2137,243.827 75.8804,243.493 80.5,242.5C 79.1667,241.167 77.8333,239.833 76.5,238.5C 70.5,237.833 64.5,237.167 58.5,236.5C 53.9979,235.005 51.3313,232.005 50.5,227.5C 53.8333,227.5 57.1667,227.5 60.5,227.5C 60.8282,222.125 60.4948,216.792 59.5,211.5C 58.513,214.768 58.1796,218.102 58.5,221.5C 53.1667,221.5 47.8333,221.5 42.5,221.5C 42.5,216.167 42.5,210.833 42.5,205.5C 37.1667,205.5 31.8333,205.5 26.5,205.5C 26.3899,202 25.5566,198.666 24,195.5C 22.9267,197.361 21.76,199.194 20.5,201C 21.2335,202.766 21.5668,204.599 21.5,206.5C 19.0968,206.607 17.2635,205.607 16,203.5C 15.7822,200.574 15.2822,197.74 14.5,195C 15.1667,194.333 15.8333,193.667 16.5,193C 15.0953,191.731 13.4286,191.231 11.5,191.5C 11.067,188.834 10.567,186.168 10,183.5C 9.61742,184.056 9.11742,184.389 8.5,184.5C 8.80155,181.941 8.46822,179.607 7.5,177.5C 5.63325,157.156 7.29991,137.156 12.5,117.5 Z"/></g>
<g><path style="opacity:0.004" fill="#fefffe" d="M 128.5,184.5 C 129.833,185.167 129.833,185.167 128.5,184.5 Z"/></g>
<g><path style="opacity:0.004" fill="#fefffe" d="M 183.5,186.5 C 184.833,187.167 184.833,187.167 183.5,186.5 Z"/></g>
<g><path style="opacity:1" fill="#5f607e" d="M 95.5,179.5 C 98.0694,184.985 100.403,190.651 102.5,196.5C 97.9763,191.9 95.6429,186.233 95.5,179.5 Z"/></g>
<g><path style="opacity:1" fill="#2a2053" d="M 146.5,177.5 C 148.684,182.003 152.351,184.336 157.5,184.5C 157.977,185.931 158.643,187.264 159.5,188.5C 158.984,187.242 159.65,186.242 161.5,185.5C 162.354,186.948 163.354,188.281 164.5,189.5C 163.674,190.451 163.508,191.451 164,192.5C 165.268,192.384 166.602,192.051 168,191.5C 169.613,193.777 171.78,195.277 174.5,196C 175.167,197 175.833,198 176.5,199C 171.257,202.716 171.59,203.216 177.5,200.5C 175.561,202.943 173.394,205.277 171,207.5C 170.517,208.448 170.351,209.448 170.5,210.5C 169.167,211.5 167.833,212.5 166.5,213.5C 165.167,213.5 163.833,213.5 162.5,213.5C 162.239,216.633 160.572,217.8 157.5,217C 157.043,216.586 156.709,216.086 156.5,215.5C 160.642,212.087 160.142,209.421 155,207.5C 153.31,208.149 151.477,208.149 149.5,207.5C 149.833,205.5 150.167,203.5 150.5,201.5C 151.5,201.5 152.5,201.5 153.5,201.5C 153.67,200.178 153.337,199.011 152.5,198C 150.133,199.298 147.466,199.798 144.5,199.5C 142.684,198.185 141.017,196.685 139.5,195C 138.551,194.383 137.718,194.549 137,195.5C 135.829,194.107 134.329,193.273 132.5,193C 134.125,192.147 134.458,191.147 133.5,190C 134.861,188.416 135.528,186.582 135.5,184.5C 137.371,184.141 138.871,183.141 140,181.5C 140.689,182.357 141.522,183.023 142.5,183.5C 143.298,181.922 143.798,180.256 144,178.5C 144.671,177.748 145.504,177.414 146.5,177.5 Z"/></g>
<g><path style="opacity:0.004" fill="#d3d2e3" d="M 175.5,189.5 C 176.833,189.5 177.5,190.167 177.5,191.5C 176.5,191.167 175.833,190.5 175.5,189.5 Z"/></g>
<g><path style="opacity:1" fill="#1e2144" d="M 86.5,294.5 C 85.2652,294.279 84.2652,293.612 83.5,292.5C 81.674,292.92 79.674,292.92 77.5,292.5C 76.8333,292.5 76.5,292.167 76.5,291.5C 76.0269,290.094 75.0269,289.427 73.5,289.5C 71.2512,288.92 69.5846,287.587 68.5,285.5C 67.7377,283.738 66.4044,282.738 64.5,282.5C 63.4154,280.413 61.7488,279.08 59.5,278.5C 57.8333,277.5 56.5,276.167 55.5,274.5C 54.4154,272.413 52.7488,271.08 50.5,270.5C 49.5987,269.71 48.9321,268.71 48.5,267.5C 48.7261,264.751 48.3928,262.084 47.5,259.5C 46.3112,258.571 44.9778,258.238 43.5,258.5C 42.7343,254.915 40.4009,252.915 36.5,252.5C 36.8588,250.234 36.1922,248.401 34.5,247C 37.0526,245.344 39.7192,245.177 42.5,246.5C 42.5,245.5 42.5,244.5 42.5,243.5C 39.6097,243.278 36.943,243.945 34.5,245.5C 33.2311,243.82 31.5644,242.653 29.5,242C 30.8398,239.851 30.1731,238.684 27.5,238.5C 22.5115,231.572 18.8448,223.905 16.5,215.5C 16.9167,212.921 16.25,210.754 14.5,209C 14.9574,208.586 15.2907,208.086 15.5,207.5C 14.452,206.452 13.452,205.452 12.5,204.5C 12.5,204.167 12.5,203.833 12.5,203.5C 12.2865,201.856 12.6198,200.356 13.5,199C 12.3094,198.302 11.3094,197.469 10.5,196.5C 9.41925,193.373 8.75258,190.04 8.5,186.5C 8.5,185.833 8.5,185.167 8.5,184.5C 9.11742,184.389 9.61742,184.056 10,183.5C 10.567,186.168 11.067,188.834 11.5,191.5C 13.4286,191.231 15.0953,191.731 16.5,193C 15.8333,193.667 15.1667,194.333 14.5,195C 15.2822,197.74 15.7822,200.574 16,203.5C 17.2635,205.607 19.0968,206.607 21.5,206.5C 21.5668,204.599 21.2335,202.766 20.5,201C 21.76,199.194 22.9267,197.361 24,195.5C 25.5566,198.666 26.3899,202 26.5,205.5C 31.8333,205.5 37.1667,205.5 42.5,205.5C 42.5,210.833 42.5,216.167 42.5,221.5C 47.8333,221.5 53.1667,221.5 58.5,221.5C 58.1796,218.102 58.513,214.768 59.5,211.5C 60.4948,216.792 60.8282,222.125 60.5,227.5C 57.1667,227.5 53.8333,227.5 50.5,227.5C 51.3313,232.005 53.9979,235.005 58.5,236.5C 64.5,237.167 70.5,237.833 76.5,238.5C 77.8333,239.833 79.1667,241.167 80.5,242.5C 75.8804,243.493 71.2137,243.827 66.5,243.5C 66.5,248.833 66.5,254.167 66.5,259.5C 69.1667,259.5 71.8333,259.5 74.5,259.5C 74.6659,264.511 74.4993,269.511 74,274.5C 71.9747,276.693 69.4747,277.693 66.5,277.5C 66.67,278.822 66.3366,279.989 65.5,281C 67.1341,281.494 68.8008,281.66 70.5,281.5C 70.33,280.178 70.6634,279.011 71.5,278C 73.6843,277.133 75.851,276.299 78,275.5C 79.3651,275.844 80.5318,276.511 81.5,277.5C 82.5,281.167 84.8333,283.5 88.5,284.5C 94.4632,285.496 100.463,285.829 106.5,285.5C 106.5,287.167 106.5,288.833 106.5,290.5C 102.039,291.048 101.539,292.715 105,295.5C 106.265,293.603 107.931,292.27 110,291.5C 110.833,291.833 111.667,292.167 112.5,292.5C 108.852,293.484 106.852,295.818 106.5,299.5C 105.448,299.649 104.448,299.483 103.5,299C 102.431,296.069 100.598,294.902 98,295.5C 95.2009,293.457 92.2009,291.791 89,290.5C 87.7753,290.862 86.6086,291.362 85.5,292C 86.2524,292.671 86.5858,293.504 86.5,294.5 Z"/></g>
<g><path style="opacity:0.259" fill="#d1d7e0" d="M 309.5,199.5 C 309.672,198.508 309.338,197.842 308.5,197.5C 308.706,195.451 309.539,195.117 311,196.5C 311.585,197.998 311.085,198.998 309.5,199.5 Z"/></g>
<g><path style="opacity:1" fill="#24204b" d="M 135.5,184.5 C 135.528,186.582 134.861,188.416 133.5,190C 134.458,191.147 134.125,192.147 132.5,193C 134.329,193.273 135.829,194.107 137,195.5C 137.718,194.549 138.551,194.383 139.5,195C 141.017,196.685 142.684,198.185 144.5,199.5C 147.466,199.798 150.133,199.298 152.5,198C 153.337,199.011 153.67,200.178 153.5,201.5C 152.5,201.5 151.5,201.5 150.5,201.5C 150.167,203.5 149.833,205.5 149.5,207.5C 151.477,208.149 153.31,208.149 155,207.5C 160.142,209.421 160.642,212.087 156.5,215.5C 156.709,216.086 157.043,216.586 157.5,217C 160.572,217.8 162.239,216.633 162.5,213.5C 163.833,213.5 165.167,213.5 166.5,213.5C 164.833,215.5 163.167,217.5 161.5,219.5C 158.892,219.6 156.558,218.933 154.5,217.5C 154.5,215.5 153.5,214.5 151.5,214.5C 151.5,214.167 151.5,213.833 151.5,213.5C 151.167,212.5 150.5,211.833 149.5,211.5C 149.027,210.094 148.027,209.427 146.5,209.5C 145.5,209.167 144.833,208.5 144.5,207.5C 143.054,206.387 141.387,206.22 139.5,207C 138.663,208.011 138.33,209.178 138.5,210.5C 137.504,210.586 136.671,210.252 136,209.5C 135.183,205.681 132.85,203.681 129,203.5C 126.836,200.553 126.002,197.219 126.5,193.5C 129.167,190.167 132.167,187.167 135.5,184.5 Z"/></g>
<g><path style="opacity:0.988" fill="#616781" d="M 10.5,196.5 C 11.3094,197.469 12.3094,198.302 13.5,199C 12.6198,200.356 12.2865,201.856 12.5,203.5C 11.3882,201.401 10.7215,199.067 10.5,196.5 Z"/></g>
<g><path style="opacity:0.922" fill="#767a92" d="M 181.5,195.5 C 185.404,197.242 185.404,198.909 181.5,200.5C 181.5,198.833 181.5,197.167 181.5,195.5 Z"/></g>
<g><path style="opacity:1" fill="#525373" d="M 102.5,196.5 C 104.417,199.331 106.083,202.331 107.5,205.5C 103.784,203.72 102.118,200.72 102.5,196.5 Z"/></g>
<g><path style="opacity:1" fill="#5a657d" d="M 308.5,197.5 C 309.338,197.842 309.672,198.508 309.5,199.5C 309.435,202.428 308.768,205.095 307.5,207.5C 307.66,205.801 307.494,204.134 307,202.5C 306.26,204.319 305.093,205.652 303.5,206.5C 304.774,203.24 306.44,200.24 308.5,197.5 Z"/></g>
<g><path style="opacity:1" fill="#535378" d="M 181.5,200.5 C 178.5,204.167 175.167,207.5 171.5,210.5C 171.167,210.5 170.833,210.5 170.5,210.5C 170.351,209.448 170.517,208.448 171,207.5C 173.394,205.277 175.561,202.943 177.5,200.5C 179.245,196.673 180.578,196.673 181.5,200.5 Z"/></g>
<g><path style="opacity:0.004" fill="#fefffe" d="M 184.5,204.5 C 185.833,205.167 185.833,205.167 184.5,204.5 Z"/></g>
<g><path style="opacity:1" fill="#393c5a" d="M 126.5,193.5 C 126.002,197.219 126.836,200.553 129,203.5C 132.85,203.681 135.183,205.681 136,209.5C 136.671,210.252 137.504,210.586 138.5,210.5C 137.878,211.627 137.045,212.627 136,213.5C 130.667,209.178 126.501,204.012 123.5,198C 124.053,196.122 125.053,194.622 126.5,193.5 Z"/></g>
<g><path style="opacity:1" fill="#686c88" d="M 144.5,207.5 C 142.5,208.5 140.5,209.5 138.5,210.5C 138.33,209.178 138.663,208.011 139.5,207C 141.387,206.22 143.054,206.387 144.5,207.5 Z"/></g>
<g><path style="opacity:0.451" fill="#9b9eb5" d="M 107.5,205.5 C 108.906,205.973 109.573,206.973 109.5,208.5C 108.094,208.027 107.427,207.027 107.5,205.5 Z"/></g>
<g><path style="opacity:0.635" fill="#a1a6bf" d="M 146.5,209.5 C 148.027,209.427 149.027,210.094 149.5,211.5C 147.973,211.573 146.973,210.906 146.5,209.5 Z"/></g>
<g><path style="opacity:1" fill="#5f6884" d="M 307.5,207.5 C 306.943,212.165 305.61,216.498 303.5,220.5C 303.167,220.5 302.833,220.5 302.5,220.5C 303.546,216.916 304.379,213.25 305,209.5C 305.417,208.244 306.25,207.577 307.5,207.5 Z"/></g>
<g><path style="opacity:0.976" fill="#5b667e" d="M 12.5,204.5 C 13.452,205.452 14.452,206.452 15.5,207.5C 15.2907,208.086 14.9574,208.586 14.5,209C 16.25,210.754 16.9167,212.921 16.5,215.5C 14.3987,212.203 13.0653,208.537 12.5,204.5 Z"/></g>
<g><path style="opacity:0.008" fill="#bdc2ce" d="M 149.5,211.5 C 150.5,211.833 151.167,212.5 151.5,213.5C 150.167,213.5 149.5,212.833 149.5,211.5 Z"/></g>
<g><path style="opacity:0.01" fill="#dddfeb" d="M 299.5,212.5 C 299.068,213.71 298.401,214.71 297.5,215.5C 297.285,213.821 297.952,212.821 299.5,212.5 Z"/></g>
<g><path style="opacity:0.024" fill="#bad3e0" d="M 170.5,210.5 C 170.833,210.5 171.167,210.5 171.5,210.5C 168.5,214.167 165.167,217.5 161.5,220.5C 161.5,220.167 161.5,219.833 161.5,219.5C 163.167,217.5 164.833,215.5 166.5,213.5C 167.833,212.5 169.167,211.5 170.5,210.5 Z"/></g>
<g><path style="opacity:0.996" fill="#4b4e69" d="M 109.5,208.5 C 112.488,212.462 115.488,216.462 118.5,220.5C 117.504,220.414 116.671,220.748 116,221.5C 116.094,218.499 114.761,216.499 112,215.5C 111.626,213.509 110.793,211.842 109.5,210.5C 109.5,209.833 109.5,209.167 109.5,208.5 Z"/></g>
<g><path style="opacity:0.447" fill="#b6becd" d="M 151.5,214.5 C 153.5,214.5 154.5,215.5 154.5,217.5C 153.167,216.833 152.167,215.833 151.5,214.5 Z"/></g>
<g><path style="opacity:1" fill="#657587" d="M 154.5,217.5 C 156.558,218.933 158.892,219.6 161.5,219.5C 161.5,219.833 161.5,220.167 161.5,220.5C 161.189,221.478 160.522,222.145 159.5,222.5C 157.479,221.145 155.812,219.479 154.5,217.5 Z"/></g>
<g><path style="opacity:0.98" fill="#606685" d="M 297.5,215.5 C 297.443,216.609 297.11,217.609 296.5,218.5C 295.833,219.5 295.167,220.5 294.5,221.5C 293.609,222.11 292.609,222.443 291.5,222.5C 292.8,219.568 294.8,217.234 297.5,215.5 Z"/></g>
<g><path style="opacity:0.18" fill="#bbcbdc" d="M 302.5,220.5 C 302.833,220.5 303.167,220.5 303.5,220.5C 303.598,222.553 302.931,224.22 301.5,225.5C 301.629,223.784 301.962,222.117 302.5,220.5 Z"/></g>
<g><path style="opacity:0.851" fill="#727895" d="M 291.5,222.5 C 291.167,224.833 289.833,226.167 287.5,226.5C 288.5,224.833 289.833,223.5 291.5,222.5 Z"/></g>
<g><path style="opacity:0.302" fill="#b3c5d4" d="M 301.5,225.5 C 301.598,227.553 300.931,229.22 299.5,230.5C 299.402,228.447 300.069,226.78 301.5,225.5 Z"/></g>
<g><path style="opacity:0.997" fill="#6d738c" d="M 120.5,222.5 C 124.526,226.195 128.526,229.862 132.5,233.5C 130.565,232.85 128.565,232.517 126.5,232.5C 126.649,231.448 126.483,230.448 126,229.5C 123.546,227.559 121.713,225.225 120.5,222.5 Z"/></g>
<g><path style="opacity:0.671" fill="#8c96ac" d="M 283.5,230.5 C 282.738,232.262 281.404,233.262 279.5,233.5C 280.262,231.738 281.596,230.738 283.5,230.5 Z"/></g>
<g><path style="opacity:0.227" fill="#b5cade" d="M 299.5,230.5 C 299.34,232.153 298.674,233.486 297.5,234.5C 297.229,232.62 297.896,231.287 299.5,230.5 Z"/></g>
<g><path style="opacity:0.004" fill="#fefffe" d="M 15.5,233.5 C 16.8333,234.167 16.8333,234.167 15.5,233.5 Z"/></g>
<g><path style="opacity:1" fill="#242150" d="M 275.5,254.5 C 273.958,255.301 272.292,255.634 270.5,255.5C 270.756,251.731 270.423,248.064 269.5,244.5C 270.991,244.099 272.658,243.932 274.5,244C 274.167,243.667 273.833,243.333 273.5,243C 276.022,242.043 278.189,240.543 280,238.5C 281.965,234.71 284.465,231.377 287.5,228.5C 291.27,227.398 293.603,225.065 294.5,221.5C 295.167,220.5 295.833,219.5 296.5,218.5C 297.496,218.586 298.329,218.252 299,217.5C 298.954,219.313 299.12,220.979 299.5,222.5C 298.975,223.192 298.308,223.692 297.5,224C 298.476,226.147 298.309,228.314 297,230.5C 294.845,233.579 292.345,236.413 289.5,239C 290.781,242.959 289.614,246.126 286,248.5C 285.667,248.167 285.333,247.833 285,247.5C 283.287,249.507 281.621,251.507 280,253.5C 278.16,252.167 277.66,252.334 278.5,254C 277.231,253.891 276.231,254.058 275.5,254.5 Z"/></g>
<g><path style="opacity:1" fill="#626a84" d="M 132.5,233.5 C 134.167,234.5 135.5,235.833 136.5,237.5C 135.603,238.598 134.77,238.598 134,237.5C 133.209,236.255 132.709,234.922 132.5,233.5 Z"/></g>
<g><path style="opacity:1" fill="#303155" d="M 294.5,221.5 C 293.603,225.065 291.27,227.398 287.5,228.5C 284.465,231.377 281.965,234.71 280,238.5C 278.189,240.543 276.022,242.043 273.5,243C 273.833,243.333 274.167,243.667 274.5,244C 272.658,243.932 270.991,244.099 269.5,244.5C 267.551,245.184 265.885,246.351 264.5,248C 262.527,248.495 260.527,248.662 258.5,248.5C 261.494,246 264.827,244 268.5,242.5C 270.027,242.573 271.027,241.906 271.5,240.5C 274.141,238.196 276.808,235.862 279.5,233.5C 281.404,233.262 282.738,232.262 283.5,230.5C 284.5,228.833 285.833,227.5 287.5,226.5C 289.833,226.167 291.167,224.833 291.5,222.5C 292.609,222.443 293.609,222.11 294.5,221.5 Z"/></g>
<g><path style="opacity:0.004" fill="#fefffe" d="M 9.5,238.5 C 10.8333,239.167 10.8333,239.167 9.5,238.5 Z"/></g>
<g><path style="opacity:0.055" fill="#c8d7e5" d="M 296.5,236.5 C 296.573,238.027 295.906,239.027 294.5,239.5C 294.427,237.973 295.094,236.973 296.5,236.5 Z"/></g>
<g><path style="opacity:1" fill="#76829d" d="M 294.5,239.5 C 294.25,241.674 293.25,243.341 291.5,244.5C 291.5,242.833 291.5,241.167 291.5,239.5C 292.5,239.5 293.5,239.5 294.5,239.5 Z"/></g>
<g><path style="opacity:0.827" fill="#7d879b" d="M 271.5,240.5 C 271.027,241.906 270.027,242.573 268.5,242.5C 268.973,241.094 269.973,240.427 271.5,240.5 Z"/></g>
<g><path style="opacity:1" fill="#2f3654" d="M 27.5,238.5 C 30.1731,238.684 30.8398,239.851 29.5,242C 31.5644,242.653 33.2311,243.82 34.5,245.5C 36.943,243.945 39.6097,243.278 42.5,243.5C 42.5,244.5 42.5,245.5 42.5,246.5C 39.7192,245.177 37.0526,245.344 34.5,247C 36.1922,248.401 36.8588,250.234 36.5,252.5C 31.9947,248.828 28.9947,244.161 27.5,238.5 Z"/></g>
<g><path style="opacity:0.02" fill="#bee4ef" d="M 291.5,244.5 C 291.715,246.179 291.048,247.179 289.5,247.5C 289.932,246.29 290.599,245.29 291.5,244.5 Z"/></g>
<g><path style="opacity:1" fill="#656b82" d="M 152.5,247.5 C 155.43,249.135 158.43,250.468 161.5,251.5C 157.221,252.507 154.221,251.174 152.5,247.5 Z"/></g>
<g><path style="opacity:1" fill="#4c516d" d="M 258.5,248.5 C 256.199,251.918 252.866,253.251 248.5,252.5C 251.678,250.991 255.011,249.658 258.5,248.5 Z"/></g>
<g><path style="opacity:0.051" fill="#bdcee1" d="M 288.5,249.5 C 288.262,251.404 287.262,252.738 285.5,253.5C 285.738,251.596 286.738,250.262 288.5,249.5 Z"/></g>
<g><path style="opacity:1" fill="#222d51" d="M 307.5,207.5 C 306.25,207.577 305.417,208.244 305,209.5C 304.379,213.25 303.546,216.916 302.5,220.5C 301.962,222.117 301.629,223.784 301.5,225.5C 300.069,226.78 299.402,228.447 299.5,230.5C 297.896,231.287 297.229,232.62 297.5,234.5C 297.672,235.492 297.338,236.158 296.5,236.5C 295.094,236.973 294.427,237.973 294.5,239.5C 293.5,239.5 292.5,239.5 291.5,239.5C 291.5,241.167 291.5,242.833 291.5,244.5C 290.599,245.29 289.932,246.29 289.5,247.5C 289.672,248.492 289.338,249.158 288.5,249.5C 286.738,250.262 285.738,251.596 285.5,253.5C 285.5,254.167 285.167,254.5 284.5,254.5C 283.5,254.5 282.5,254.5 281.5,254.5C 281.5,255.833 281.5,257.167 281.5,258.5C 280.094,258.973 279.427,259.973 279.5,261.5C 278.094,261.973 277.427,262.973 277.5,264.5C 277.167,265.5 276.5,266.167 275.5,266.5C 273.5,268.167 271.5,269.833 269.5,271.5C 268.5,271.5 267.5,271.5 266.5,271.5C 266.5,272.5 266.5,273.5 266.5,274.5C 264.833,275.833 263.167,277.167 261.5,278.5C 261.5,277.833 261.167,277.5 260.5,277.5C 260.338,275.473 260.505,273.473 261,271.5C 262.487,270.747 262.654,269.914 261.5,269C 263.544,268.952 265.544,269.452 267.5,270.5C 268.738,268.363 270.571,267.029 273,266.5C 274.369,262.623 275.202,258.623 275.5,254.5C 276.231,254.058 277.231,253.891 278.5,254C 277.66,252.334 278.16,252.167 280,253.5C 281.621,251.507 283.287,249.507 285,247.5C 285.333,247.833 285.667,248.167 286,248.5C 289.614,246.126 290.781,242.959 289.5,239C 292.345,236.413 294.845,233.579 297,230.5C 298.309,228.314 298.476,226.147 297.5,224C 298.308,223.692 298.975,223.192 299.5,222.5C 299.12,220.979 298.954,219.313 299,217.5C 298.329,218.252 297.496,218.586 296.5,218.5C 297.11,217.609 297.443,216.609 297.5,215.5C 298.401,214.71 299.068,213.71 299.5,212.5C 300.34,210.147 301.674,208.147 303.5,206.5C 305.093,205.652 306.26,204.319 307,202.5C 307.494,204.134 307.66,205.801 307.5,207.5 Z"/></g>
<g><path style="opacity:1" fill="#2f3551" d="M 36.5,252.5 C 40.4009,252.915 42.7343,254.915 43.5,258.5C 44.9778,258.238 46.3112,258.571 47.5,259.5C 48.3928,262.084 48.7261,264.751 48.5,267.5C 44.8348,264.667 41.6682,261.334 39,257.5C 37.9055,255.922 37.0722,254.255 36.5,252.5 Z"/></g>
<g><path style="opacity:0.978" fill="#678198" d="M 284.5,254.5 C 283.974,256.23 282.974,257.564 281.5,258.5C 281.5,257.167 281.5,255.833 281.5,254.5C 282.5,254.5 283.5,254.5 284.5,254.5 Z"/></g>
<g><path style="opacity:0.965" fill="#5e6880" d="M 248.5,252.5 C 244.37,255.324 239.703,256.991 234.5,257.5C 238.94,255.462 243.607,253.796 248.5,252.5 Z"/></g>
<g><path style="opacity:0.004" fill="#d2e6ef" d="M 281.5,258.5 C 281.573,260.027 280.906,261.027 279.5,261.5C 279.427,259.973 280.094,258.973 281.5,258.5 Z"/></g>
<g><path style="opacity:0.004" fill="#cde8ec" d="M 279.5,261.5 C 279.573,263.027 278.906,264.027 277.5,264.5C 277.427,262.973 278.094,261.973 279.5,261.5 Z"/></g>
<g><path style="opacity:0.004" fill="#fefffe" d="M 0.5,266.5 C 1.83333,267.167 1.83333,267.167 0.5,266.5 Z"/></g>
<g><path style="opacity:0.004" fill="#daf0f5" d="M 275.5,266.5 C 274.5,269.5 272.5,271.5 269.5,272.5C 269.5,272.167 269.5,271.833 269.5,271.5C 271.5,269.833 273.5,268.167 275.5,266.5 Z"/></g>
<g><path style="opacity:0.451" fill="#a2abba" d="M 50.5,270.5 C 52.7488,271.08 54.4154,272.413 55.5,274.5C 53.2512,273.92 51.5846,272.587 50.5,270.5 Z"/></g>
<g><path style="opacity:0.976" fill="#556880" d="M 269.5,271.5 C 269.5,271.833 269.5,272.167 269.5,272.5C 269.167,273.5 268.5,274.167 267.5,274.5C 267.167,274.5 266.833,274.5 266.5,274.5C 266.5,273.5 266.5,272.5 266.5,271.5C 267.5,271.5 268.5,271.5 269.5,271.5 Z"/></g>
<g><path style="opacity:0.016" fill="#bee0e8" d="M 266.5,274.5 C 266.833,274.5 267.167,274.5 267.5,274.5C 266.089,276.914 264.089,278.581 261.5,279.5C 261.5,279.167 261.5,278.833 261.5,278.5C 263.167,277.167 264.833,275.833 266.5,274.5 Z"/></g>
<g><path style="opacity:0.004" fill="#fefffe" d="M 275.5,276.5 C 276.833,277.167 276.833,277.167 275.5,276.5 Z"/></g>
<g><path style="opacity:0.816" fill="#8d9dab" d="M 59.5,278.5 C 61.7488,279.08 63.4154,280.413 64.5,282.5C 62.2512,281.92 60.5846,280.587 59.5,278.5 Z"/></g>
<g><path style="opacity:1" fill="#4f5973" d="M 260.5,277.5 C 261.167,277.5 261.5,277.833 261.5,278.5C 261.5,278.833 261.5,279.167 261.5,279.5C 260.089,281.914 258.089,283.581 255.5,284.5C 256.301,282.958 256.634,281.292 256.5,279.5C 258.199,279.473 259.533,278.806 260.5,277.5 Z"/></g>
<g><path style="opacity:0.847" fill="#8490a2" d="M 64.5,282.5 C 66.4044,282.738 67.7377,283.738 68.5,285.5C 66.5956,285.262 65.2623,284.262 64.5,282.5 Z"/></g>
<g><path style="opacity:0.008" fill="#dfe9f1" d="M 254.5,285.5 C 254.179,287.048 253.179,287.715 251.5,287.5C 251.5,287.167 251.5,286.833 251.5,286.5C 252.609,286.443 253.609,286.11 254.5,285.5 Z"/></g>
<g><path style="opacity:0.545" fill="#838ba4" d="M 73.5,289.5 C 75.0269,289.427 76.0269,290.094 76.5,291.5C 74.9731,291.573 73.9731,290.906 73.5,289.5 Z"/></g>
<g><path style="opacity:0.024" fill="#d0e8ef" d="M 245.5,291.5 C 245.842,290.662 246.508,290.328 247.5,290.5C 247.591,292.698 246.925,293.031 245.5,291.5 Z"/></g>
<g><path style="opacity:1" fill="#434e63" d="M 77.5,292.5 C 79.674,292.92 81.674,292.92 83.5,292.5C 84.2652,293.612 85.2652,294.279 86.5,294.5C 89.4676,295.467 91.4676,297.467 92.5,300.5C 87.3019,298.07 82.3019,295.403 77.5,292.5 Z"/></g>
<g><path style="opacity:1" fill="#3c455f" d="M 251.5,286.5 C 251.5,286.833 251.5,287.167 251.5,287.5C 250.564,288.974 249.23,289.974 247.5,290.5C 246.508,290.328 245.842,290.662 245.5,291.5C 244.531,292.309 243.698,293.309 243,294.5C 242.667,294.167 242.333,293.833 242,293.5C 240.887,294.305 239.721,294.972 238.5,295.5C 237.833,295.833 237.167,296.167 236.5,296.5C 236.196,295.85 235.863,295.183 235.5,294.5C 237.167,293.833 238.833,293.167 240.5,292.5C 242.871,288.255 246.538,286.255 251.5,286.5 Z"/></g>
<g><path style="opacity:0.008" fill="#e8f2f5" d="M 238.5,295.5 C 238.179,297.048 237.179,297.715 235.5,297.5C 235.5,296.833 235.833,296.5 236.5,296.5C 237.167,296.167 237.833,295.833 238.5,295.5 Z"/></g>
<g><path style="opacity:0.008" fill="#e2ebf3" d="M 233.5,298.5 C 232.817,300.176 231.483,300.843 229.5,300.5C 230.514,299.326 231.847,298.66 233.5,298.5 Z"/></g>
<g><path style="opacity:0.024" fill="#d1e9ee" d="M 227.5,301.5 C 227.842,300.662 228.508,300.328 229.5,300.5C 229.591,302.698 228.925,303.031 227.5,301.5 Z"/></g>
<g><path style="opacity:0.012" fill="#eceef5" d="M 225.5,302.5 C 224.994,304.105 224.327,304.439 223.5,303.5C 223.842,302.662 224.508,302.328 225.5,302.5 Z"/></g>
<g><path style="opacity:0.129" fill="#bfc5d7" d="M 220.5,304.5 C 220.842,303.662 221.508,303.328 222.5,303.5C 222.591,305.698 221.925,306.031 220.5,304.5 Z"/></g>
<g><path style="opacity:1" fill="#69728a" d="M 213.5,307.5 C 210.785,309.072 207.785,310.072 204.5,310.5C 206.896,308.049 209.896,307.049 213.5,307.5 Z"/></g>
<g><path style="opacity:1" fill="#343a56" d="M 92.5,300.5 C 98.2016,301.009 103.868,301.843 109.5,303C 112.106,303.45 113.439,304.95 113.5,307.5C 117.799,308.248 122.132,309.248 126.5,310.5C 128.529,310.33 130.529,309.996 132.5,309.5C 132.962,311.019 134.462,312.019 137,312.5C 139.808,311.614 142.641,311.447 145.5,312C 144.692,312.308 144.025,312.808 143.5,313.5C 151.104,314.884 158.77,315.55 166.5,315.5C 166.5,315.833 166.5,316.167 166.5,316.5C 161.239,317.351 155.906,317.351 150.5,316.5C 148.052,315.527 145.385,315.194 142.5,315.5C 137.609,315.468 132.943,314.801 128.5,313.5C 126.485,312.076 124.152,311.41 121.5,311.5C 114.301,310.045 107.301,307.879 100.5,305C 97.6089,303.726 94.9422,302.226 92.5,300.5 Z"/></g>
<g><path style="opacity:0.592" fill="#8993a3" d="M 121.5,311.5 C 124.152,311.41 126.485,312.076 128.5,313.5C 125.848,313.59 123.515,312.924 121.5,311.5 Z"/></g>
<g><path style="opacity:0.004" fill="#fefffe" d="M 225.5,312.5 C 226.833,313.167 226.833,313.167 225.5,312.5 Z"/></g>
<g><path style="opacity:0.443" fill="#b1bdcd" d="M 142.5,315.5 C 145.385,315.194 148.052,315.527 150.5,316.5C 148.533,316.261 146.699,316.594 145,317.5C 144.005,316.934 143.172,316.267 142.5,315.5 Z"/></g>
<g><path style="opacity:0.682" fill="#828ba0" d="M 166.5,315.5 C 170.5,315.5 174.5,315.5 178.5,315.5C 174.769,316.196 170.935,316.862 167,317.5C 166.601,317.272 166.435,316.938 166.5,316.5C 166.5,316.167 166.5,315.833 166.5,315.5 Z"/></g>
</svg>
